<svg width="715" height="222" viewBox="0 0 715 222" fill="none" xmlns="http://www.w3.org/2000/svg">
<g filter="url(#filter0_d_510_34)">
<path d="M228.268 18.9194C229.552 18.6725 231.132 18.4997 233.009 18.4009C234.935 18.2527 236.491 18.1787 237.676 18.1787C238.911 18.1787 240.392 18.228 242.121 18.3268C243.898 18.3762 245.553 18.5244 247.084 18.7713L242.935 37.1425L241.75 37.3648C241.948 40.8217 242.121 44.6738 242.269 48.9209C242.466 53.1186 242.614 57.3905 242.713 61.7363C242.861 66.0329 242.935 70.0084 242.935 73.6629V119.961C241.602 120.159 240.318 120.307 239.083 120.406C237.849 120.505 236.713 120.554 235.676 120.554C234.688 120.554 233.528 120.505 232.194 120.406C230.861 120.307 229.552 120.159 228.268 119.961V18.9194ZM251.677 57.8102C249.849 54.1557 248.146 50.6 246.565 47.143C245.034 43.6861 243.577 40.3773 242.195 37.2166L234.787 28.3273L247.084 18.7713L278.419 80.8484C280.295 84.7498 282.048 88.5525 283.678 92.2564C285.357 95.9109 286.913 99.2444 288.345 102.257L296.123 110.479L283.234 119.961L251.677 57.8102ZM302.124 18.9935V119.813C300.889 120.06 299.358 120.233 297.531 120.332C295.753 120.48 294.123 120.554 292.642 120.554C291.209 120.554 289.679 120.505 288.049 120.406C286.419 120.307 284.814 120.159 283.234 119.961L287.53 102.331L288.79 102.183C288.543 98.232 288.32 94.0342 288.123 89.5896C287.925 85.0955 287.777 80.7002 287.678 76.4037C287.629 72.1072 287.604 68.2552 287.604 64.8476V27.9569C287.604 24.5 288.197 22.006 289.382 20.4751C290.617 18.9441 292.839 18.1787 296.049 18.1787H301.235L302.124 18.9935ZM380.822 18.7713C382.056 18.5737 383.563 18.4256 385.341 18.3268C387.168 18.228 388.723 18.1787 390.007 18.1787C391.242 18.1787 392.748 18.228 394.526 18.3268C396.304 18.4256 397.736 18.5984 398.823 18.8454L432.084 118.998C430.948 119.69 429.54 120.184 427.861 120.48C426.231 120.826 424.577 120.999 422.898 120.999C420.379 120.999 418.429 120.431 417.046 119.295C415.712 118.159 414.527 115.937 413.49 112.628L397.193 61.1437C395.81 56.8472 394.427 52.2791 393.045 47.4393C391.662 42.5996 390.427 38.229 389.341 34.3276H388.6C388.106 36.5499 387.489 38.9698 386.748 41.5872C386.057 44.2046 385.365 46.7727 384.674 49.2913C383.983 51.7605 383.365 53.9088 382.822 55.7361L362.377 120.11C361.389 120.307 360.302 120.455 359.117 120.554C357.981 120.653 356.796 120.702 355.561 120.702C354.179 120.702 352.796 120.603 351.413 120.406C350.08 120.208 348.894 119.961 347.857 119.665L347.413 118.85L380.822 18.7713ZM378.822 95.5158C378.377 95.5158 377.439 95.5158 376.007 95.5158C374.624 95.4664 373.217 95.4417 371.784 95.4417C370.402 95.3923 369.463 95.3676 368.969 95.3676H361.636L366.525 82.5522H372.97C373.463 82.5522 374.328 82.5522 375.562 82.5522C376.797 82.5028 378.032 82.4781 379.266 82.4781C380.55 82.4287 381.414 82.404 381.859 82.404H396.6C397.094 82.404 397.959 82.4287 399.193 82.4781C400.428 82.4781 401.687 82.5028 402.971 82.5522C404.304 82.5522 405.193 82.5522 405.638 82.5522H412.305L416.527 95.3676H409.194C408.7 95.3676 407.737 95.3923 406.305 95.4417C404.872 95.4417 403.44 95.4664 402.008 95.5158C400.625 95.5158 399.687 95.5158 399.193 95.5158H378.822ZM610.39 120.11H603.723C601.056 120.11 598.858 119.27 597.13 117.591C595.401 115.912 594.537 113.467 594.537 110.257V19.0676L595.5 18.1787H601.575C604.785 18.1787 607.056 18.9935 608.39 20.6232C609.723 22.2035 610.39 24.7222 610.39 28.1791V120.11ZM652.985 106.331C652.985 111.665 652.17 115.295 650.54 117.221C648.91 119.147 646.194 120.11 642.391 120.11H603.723L595.574 108.553C600.167 107.813 604.957 107.269 609.945 106.924C614.933 106.529 619.477 106.331 623.576 106.331H652.985Z" fill="#5F588B"/>
<path d="M477.32 18.7713C478.455 18.5244 479.764 18.3762 481.246 18.3268C482.727 18.228 484.011 18.1787 485.098 18.1787C486.382 18.1787 487.74 18.228 489.172 18.3268C490.604 18.3762 491.913 18.5244 493.098 18.7713V119.961C491.913 120.159 490.604 120.307 489.172 120.406C487.74 120.505 486.382 120.554 485.098 120.554C484.011 120.554 482.727 120.505 481.246 120.406C479.764 120.307 478.455 120.159 477.32 119.961V18.7713ZM549.842 115.887C548.755 117.467 547.2 118.702 545.175 119.591C543.15 120.431 541.15 120.85 539.175 120.85C536.063 120.85 533.816 120.06 532.433 118.48C531.1 116.9 529.865 114.504 528.73 111.294L520.729 89.6636C518.655 83.9844 516.309 80.0335 513.692 77.8112C511.074 75.5889 507.568 74.4777 503.173 74.4777C501.592 74.4777 499.296 74.5271 496.284 74.6259C493.271 74.7246 489.493 74.9222 484.95 75.2185V64.8476H510.432C515.47 64.8476 519.519 65.5884 522.581 67.0699C525.643 68.5021 528.137 70.6257 530.063 73.4406C531.989 76.2062 533.693 79.6138 535.174 83.6633L543.249 105.072C544.039 107.146 544.755 108.85 545.397 110.183C546.088 111.517 546.78 112.628 547.471 113.517C548.212 114.356 549.002 115.146 549.842 115.887ZM526.063 24.6975C527.248 22.5739 528.458 20.9936 529.693 19.9565C530.927 18.87 532.878 18.3268 535.545 18.3268C536.878 18.3268 538.31 18.3515 539.841 18.4009C541.422 18.4503 542.977 18.549 544.508 18.6972L545.545 20.0306L523.1 58.0325C520.927 61.8845 518.186 64.9217 514.877 67.144C511.618 69.3663 507.494 70.4775 502.506 70.4775H484.95V61.366C487.468 61.2672 490.234 61.1931 493.246 61.1437C496.259 61.045 498.975 60.9956 501.395 60.9956C502.876 60.9956 503.963 60.6746 504.654 60.0326C505.395 59.3906 506.185 58.3288 507.025 56.8472L526.063 24.6975Z" fill="#EFC75E"/>
</g>
<g filter="url(#filter1_d_510_34)">
<path d="M227.146 190.692C227.146 191.433 226.943 191.958 226.535 192.266C226.14 192.587 225.653 192.723 225.072 192.674C224.615 192.649 224.233 192.482 223.924 192.174C223.615 191.865 223.443 191.371 223.406 190.692C223.406 190.482 223.344 189.865 223.22 188.84C223.109 187.815 223.041 186.945 223.017 186.229C222.943 184.575 222.998 182.327 223.183 179.488C223.381 176.648 223.486 175 223.498 174.543C223.511 173.753 223.733 173.179 224.165 172.821C224.609 172.45 225.116 172.278 225.683 172.302C226.227 172.302 226.659 172.475 226.98 172.821C227.301 173.154 227.424 173.716 227.35 174.506C227.301 175.037 227.258 175.451 227.221 175.747C227.826 174.821 228.677 174.043 229.776 173.413C230.875 172.784 232.19 172.469 233.721 172.469C235.474 172.469 236.795 173.111 237.684 174.395C238.573 175.667 239.048 177.457 239.11 179.766C239.159 181.309 239.351 183.278 239.684 185.673C240.017 188.056 240.209 189.63 240.258 190.396C240.295 191.186 240.159 191.76 239.851 192.118C239.542 192.488 239.135 192.674 238.629 192.674C238.073 192.698 237.585 192.526 237.165 192.155C236.758 191.797 236.53 191.211 236.48 190.396C236.456 190.161 236.32 188.964 236.073 186.803C235.838 184.63 235.69 182.852 235.628 181.469C235.517 179.309 235.307 177.858 234.999 177.117C234.702 176.377 234.097 176.006 233.184 176.006C232.554 176.006 231.943 176.111 231.35 176.321C230.758 176.519 230.239 176.778 229.795 177.099C229.35 177.407 228.924 177.784 228.517 178.229C228.109 178.661 227.776 179.074 227.517 179.469C227.258 179.864 227.011 180.278 226.776 180.71C226.69 182.155 226.665 183.494 226.702 184.729C226.702 185.605 226.776 186.723 226.924 188.081C227.072 189.439 227.146 190.309 227.146 190.692ZM226.128 182.525V182.451V182.525ZM253.174 192.84C251.939 192.816 250.803 192.519 249.766 191.951C248.741 191.383 247.889 190.637 247.21 189.711C246.544 188.772 246.025 187.704 245.655 186.507C245.284 185.297 245.112 184.037 245.136 182.729C245.136 181.21 245.334 179.803 245.729 178.506C246.136 177.198 246.717 176.062 247.47 175.099C248.223 174.123 249.18 173.364 250.34 172.821C251.513 172.265 252.834 171.987 254.303 171.987C255.217 171.987 256.081 172.117 256.896 172.376C257.723 172.623 258.507 173.037 259.248 173.617C259.989 174.185 260.612 174.901 261.119 175.765C261.637 176.617 262.026 177.691 262.285 178.988C262.557 180.284 262.643 181.735 262.545 183.34C262.446 184.883 262.199 186.229 261.804 187.377C261.421 188.525 260.859 189.519 260.118 190.359C259.39 191.198 258.446 191.822 257.285 192.229C256.124 192.649 254.754 192.853 253.174 192.84ZM253.989 189.636C254.754 189.674 255.433 189.525 256.026 189.192C256.631 188.859 257.118 188.371 257.489 187.729C257.859 187.087 258.149 186.346 258.359 185.507C258.569 184.667 258.692 183.729 258.73 182.692C258.828 180.013 258.433 178.056 257.544 176.821C256.668 175.574 255.415 174.951 253.785 174.951C252.303 174.951 251.174 175.63 250.396 176.988C249.618 178.333 249.161 180.222 249.025 182.655C249.001 183.482 249.019 184.223 249.081 184.877C249.155 185.531 249.297 186.155 249.507 186.747C249.729 187.34 250.025 187.834 250.396 188.229C250.766 188.624 251.248 188.945 251.84 189.192C252.445 189.439 253.161 189.587 253.989 189.636ZM282.96 192.155C281.565 192.686 279.874 192.927 277.886 192.877C276.923 192.84 276.028 192.667 275.201 192.359C274.386 192.063 273.657 191.643 273.015 191.1C272.373 190.544 271.861 189.834 271.478 188.97C271.096 188.106 270.892 187.136 270.867 186.062C270.83 185.667 270.818 185.044 270.83 184.192C270.855 183.34 270.861 182.766 270.849 182.469C270.849 182.173 270.873 181.642 270.923 180.877C270.972 180.099 271.003 179.593 271.015 179.358C271.028 179.111 271.059 178.624 271.108 177.895C271.17 177.167 271.213 176.698 271.238 176.488H269.367C268.256 176.488 267.725 175.932 267.774 174.821C267.774 173.734 268.318 173.191 269.404 173.191C270.219 173.191 270.879 173.21 271.386 173.247C271.472 171.457 271.423 169.549 271.238 167.524C271.188 167.129 271.287 166.746 271.534 166.376C271.793 166.006 272.139 165.821 272.571 165.821C273.028 165.821 273.515 165.981 274.034 166.302C274.565 166.623 274.861 166.963 274.923 167.321C275.022 168.247 275.022 170.247 274.923 173.321C275.738 173.346 276.732 173.376 277.905 173.413C279.09 173.451 280.053 173.481 280.794 173.506C281.534 173.518 282.053 173.525 282.349 173.525C283.436 173.525 283.979 174.08 283.979 175.191C283.954 175.623 283.825 175.969 283.59 176.228C283.355 176.475 282.942 176.599 282.349 176.599C281.757 176.599 279.238 176.574 274.793 176.525C274.781 176.982 274.75 177.747 274.701 178.821C274.651 179.895 274.62 180.624 274.608 181.006C274.596 181.389 274.571 182.044 274.534 182.969C274.497 183.895 274.485 184.439 274.497 184.599C274.509 184.76 274.515 185.155 274.515 185.784C274.577 186.908 274.948 187.822 275.627 188.525C276.318 189.217 277.263 189.587 278.46 189.636C280.04 189.686 281.541 189.402 282.96 188.785C283.343 188.624 283.689 188.649 283.997 188.859C284.306 189.069 284.516 189.42 284.627 189.914C284.714 190.396 284.59 190.84 284.257 191.248C283.923 191.643 283.491 191.945 282.96 192.155ZM329.218 193.322C328.675 193.371 328.206 193.266 327.811 193.007C327.416 192.748 327.113 192.229 326.903 191.451C326.866 191.204 326.798 190.809 326.7 190.266C326.613 189.711 326.545 189.285 326.496 188.988C324.903 191.667 322.866 193.007 320.384 193.007C319.508 192.982 318.674 192.803 317.884 192.47C317.106 192.137 316.434 191.698 315.866 191.155C315.298 190.599 314.804 189.976 314.384 189.285C313.964 188.593 313.643 187.883 313.421 187.155C313.211 186.414 313.106 185.698 313.106 185.007C313.106 183.611 313.211 182.327 313.421 181.155C313.631 179.982 313.915 178.957 314.273 178.08C314.643 177.204 315.088 176.426 315.606 175.747C316.137 175.056 316.705 174.488 317.31 174.043C317.927 173.586 318.6 173.216 319.329 172.932C320.07 172.636 320.81 172.426 321.551 172.302C322.304 172.166 323.088 172.099 323.903 172.099C325.261 172.099 326.416 172.346 327.366 172.839C328.329 173.321 329.311 174.13 330.311 175.265C329.866 178.5 329.669 181.21 329.718 183.395C329.768 185.568 330.113 188.118 330.755 191.044C330.94 191.822 330.873 192.384 330.552 192.729C330.243 193.075 329.798 193.272 329.218 193.322ZM317.051 183.784C317.051 184.414 317.119 185.062 317.255 185.729C317.403 186.383 317.606 187.007 317.866 187.599C318.137 188.192 318.502 188.68 318.958 189.062C319.428 189.445 319.952 189.636 320.533 189.636C321.15 189.636 321.755 189.464 322.347 189.118C322.952 188.772 323.489 188.328 323.959 187.785C324.428 187.229 324.841 186.643 325.199 186.025C325.557 185.396 325.854 184.76 326.088 184.118C326.088 181.784 326.224 179.334 326.496 176.765C325.928 176.309 325.409 175.988 324.94 175.802C324.471 175.605 323.841 175.506 323.051 175.506C322.594 175.506 322.113 175.586 321.607 175.747C321.113 175.907 320.588 176.191 320.033 176.599C319.477 177.006 318.983 177.512 318.551 178.117C318.119 178.71 317.761 179.5 317.477 180.488C317.193 181.476 317.051 182.574 317.051 183.784ZM339.967 190.692C339.967 191.433 339.763 191.958 339.356 192.266C338.961 192.587 338.473 192.723 337.893 192.674C337.436 192.649 337.053 192.482 336.744 192.174C336.436 191.865 336.263 191.371 336.226 190.692C336.226 190.482 336.164 189.865 336.041 188.84C335.93 187.815 335.862 186.945 335.837 186.229C335.763 184.575 335.818 182.327 336.004 179.488C336.201 176.648 336.306 175 336.319 174.543C336.331 173.753 336.553 173.179 336.985 172.821C337.43 172.45 337.936 172.278 338.504 172.302C339.047 172.302 339.479 172.475 339.8 172.821C340.121 173.154 340.245 173.716 340.171 174.506C340.121 175.037 340.078 175.451 340.041 175.747C340.646 174.821 341.498 174.043 342.597 173.413C343.695 172.784 345.01 172.469 346.541 172.469C348.294 172.469 349.615 173.111 350.504 174.395C351.393 175.667 351.869 177.457 351.93 179.766C351.98 181.309 352.171 183.278 352.504 185.673C352.838 188.056 353.029 189.63 353.079 190.396C353.116 191.186 352.98 191.76 352.671 192.118C352.362 192.488 351.955 192.674 351.449 192.674C350.893 192.698 350.406 192.526 349.986 192.155C349.578 191.797 349.35 191.211 349.301 190.396C349.276 190.161 349.14 188.964 348.893 186.803C348.659 184.63 348.51 182.852 348.449 181.469C348.338 179.309 348.128 177.858 347.819 177.117C347.523 176.377 346.918 176.006 346.004 176.006C345.375 176.006 344.763 176.111 344.171 176.321C343.578 176.519 343.06 176.778 342.615 177.099C342.171 177.407 341.745 177.784 341.337 178.229C340.93 178.661 340.596 179.074 340.337 179.469C340.078 179.864 339.831 180.278 339.596 180.71C339.51 182.155 339.485 183.494 339.522 184.729C339.522 185.605 339.596 186.723 339.745 188.081C339.893 189.439 339.967 190.309 339.967 190.692ZM338.948 182.525V182.451V182.525ZM365.994 192.84C364.759 192.816 363.624 192.519 362.586 191.951C361.562 191.383 360.71 190.637 360.031 189.711C359.364 188.772 358.846 187.704 358.475 186.507C358.105 185.297 357.932 184.037 357.957 182.729C357.957 181.21 358.154 179.803 358.549 178.506C358.957 177.198 359.537 176.062 360.29 175.099C361.043 174.123 362 173.364 363.161 172.821C364.333 172.265 365.655 171.987 367.124 171.987C368.037 171.987 368.902 172.117 369.716 172.376C370.544 172.623 371.328 173.037 372.068 173.617C372.809 174.185 373.433 174.901 373.939 175.765C374.457 176.617 374.846 177.691 375.106 178.988C375.377 180.284 375.464 181.735 375.365 183.34C375.266 184.883 375.019 186.229 374.624 187.377C374.241 188.525 373.68 189.519 372.939 190.359C372.21 191.198 371.266 191.822 370.105 192.229C368.945 192.649 367.574 192.853 365.994 192.84ZM366.809 189.636C367.574 189.674 368.253 189.525 368.846 189.192C369.451 188.859 369.939 188.371 370.309 187.729C370.679 187.087 370.97 186.346 371.179 185.507C371.389 184.667 371.513 183.729 371.55 182.692C371.649 180.013 371.254 178.056 370.365 176.821C369.488 175.574 368.235 174.951 366.605 174.951C365.124 174.951 363.994 175.63 363.216 176.988C362.438 178.333 361.981 180.222 361.846 182.655C361.821 183.482 361.84 184.223 361.901 184.877C361.975 185.531 362.117 186.155 362.327 186.747C362.549 187.34 362.846 187.834 363.216 188.229C363.587 188.624 364.068 188.945 364.661 189.192C365.266 189.439 365.982 189.587 366.809 189.636ZM395.781 192.155C394.386 192.686 392.694 192.927 390.706 192.877C389.743 192.84 388.848 192.667 388.021 192.359C387.206 192.063 386.478 191.643 385.836 191.1C385.194 190.544 384.681 189.834 384.299 188.97C383.916 188.106 383.712 187.136 383.687 186.062C383.65 185.667 383.638 185.044 383.65 184.192C383.675 183.34 383.681 182.766 383.669 182.469C383.669 182.173 383.694 181.642 383.743 180.877C383.792 180.099 383.823 179.593 383.836 179.358C383.848 179.111 383.879 178.624 383.928 177.895C383.99 177.167 384.033 176.698 384.058 176.488H382.187C381.076 176.488 380.545 175.932 380.595 174.821C380.595 173.734 381.138 173.191 382.224 173.191C383.039 173.191 383.7 173.21 384.206 173.247C384.292 171.457 384.243 169.549 384.058 167.524C384.008 167.129 384.107 166.746 384.354 166.376C384.613 166.006 384.959 165.821 385.391 165.821C385.848 165.821 386.336 165.981 386.854 166.302C387.385 166.623 387.682 166.963 387.743 167.321C387.842 168.247 387.842 170.247 387.743 173.321C388.558 173.346 389.552 173.376 390.725 173.413C391.91 173.451 392.873 173.481 393.614 173.506C394.355 173.518 394.873 173.525 395.17 173.525C396.256 173.525 396.799 174.08 396.799 175.191C396.775 175.623 396.645 175.969 396.41 176.228C396.176 176.475 395.762 176.599 395.17 176.599C394.577 176.599 392.058 176.574 387.614 176.525C387.601 176.982 387.57 177.747 387.521 178.821C387.472 179.895 387.441 180.624 387.428 181.006C387.416 181.389 387.391 182.044 387.354 182.969C387.317 183.895 387.305 184.439 387.317 184.599C387.33 184.76 387.336 185.155 387.336 185.784C387.398 186.908 387.768 187.822 388.447 188.525C389.138 189.217 390.083 189.587 391.28 189.636C392.861 189.686 394.361 189.402 395.781 188.785C396.163 188.624 396.509 188.649 396.818 188.859C397.126 189.069 397.336 189.42 397.447 189.914C397.534 190.396 397.41 190.84 397.077 191.248C396.744 191.643 396.312 191.945 395.781 192.155ZM420.419 190.285C420.419 191.062 420.215 191.661 419.808 192.081C419.413 192.501 418.95 192.698 418.419 192.674C417.937 192.649 417.493 192.445 417.085 192.063C416.678 191.68 416.474 191.192 416.474 190.599C416.474 189.883 416.499 188.507 416.548 186.47C416.598 184.42 416.616 182.753 416.604 181.469C416.579 179.741 416.369 178.42 415.974 177.506C415.579 176.58 415.005 176.117 414.252 176.117C413.486 176.13 412.783 176.259 412.141 176.506C411.511 176.753 410.98 177.068 410.548 177.451C410.128 177.821 409.752 178.253 409.418 178.747C409.085 179.229 408.826 179.704 408.641 180.173C408.468 180.63 408.32 181.087 408.196 181.543C408.085 181.988 408.011 182.346 407.974 182.618C407.937 182.877 407.918 183.081 407.918 183.229V183.173C407.918 183.321 407.912 183.568 407.9 183.914C407.887 184.247 407.881 184.5 407.881 184.673C407.869 185.155 407.863 185.76 407.863 186.488C407.863 187.217 407.857 187.772 407.844 188.155C407.844 188.538 407.826 188.982 407.789 189.488C407.764 189.995 407.727 190.464 407.678 190.896C407.616 191.439 407.363 191.871 406.918 192.192C406.474 192.513 405.98 192.661 405.437 192.637C404.93 192.637 404.511 192.464 404.177 192.118C403.856 191.772 403.721 191.297 403.77 190.692C403.844 189.655 403.937 187.828 404.048 185.21C404.171 182.593 404.214 180.797 404.177 179.821C403.992 175.574 403.967 170.555 404.103 164.765C404.116 164.074 404.301 163.555 404.659 163.209C405.017 162.864 405.455 162.691 405.974 162.691C406.529 162.666 406.992 162.814 407.363 163.135C407.733 163.456 407.918 163.956 407.918 164.635C407.918 167.45 407.943 171.37 407.992 176.395C408.264 175.901 408.604 175.438 409.011 175.006C409.418 174.574 409.918 174.167 410.511 173.784C411.104 173.401 411.826 173.099 412.678 172.876C413.542 172.654 414.48 172.543 415.493 172.543C416.332 172.543 417.055 172.734 417.66 173.117C418.277 173.5 418.752 174.037 419.086 174.728C419.431 175.407 419.678 176.167 419.826 177.006C419.987 177.846 420.061 178.766 420.049 179.766C420.036 181.284 420.092 183.204 420.215 185.525C420.351 187.846 420.419 189.433 420.419 190.285ZM442.779 189.544C442.384 190.087 441.971 190.544 441.538 190.914C441.106 191.285 440.557 191.63 439.89 191.951C439.236 192.285 438.421 192.526 437.446 192.674C436.483 192.834 435.365 192.902 434.094 192.877C431.563 192.84 429.6 191.933 428.204 190.155C426.809 188.377 426.136 185.933 426.186 182.821C426.211 181.13 426.476 179.605 426.982 178.247C427.488 176.877 428.174 175.747 429.038 174.858C429.902 173.957 430.921 173.265 432.094 172.784C433.266 172.302 434.538 172.062 435.909 172.062C436.699 172.062 437.557 172.278 438.483 172.71C439.421 173.142 440.298 173.759 441.113 174.562C441.927 175.364 442.495 176.235 442.816 177.173C442.952 177.803 442.779 178.488 442.298 179.229C441.829 179.969 441.335 180.531 440.816 180.914C440.347 181.26 439.754 181.618 439.038 181.988C438.322 182.358 437.507 182.723 436.594 183.081C435.693 183.439 434.915 183.741 434.26 183.988C433.606 184.235 432.791 184.525 431.816 184.858C430.84 185.192 430.229 185.402 429.982 185.488C430.081 186.105 430.223 186.655 430.408 187.136C430.606 187.618 430.871 188.062 431.205 188.47C431.538 188.865 431.964 189.18 432.482 189.414C433.001 189.636 433.606 189.76 434.297 189.785C434.976 189.822 435.649 189.748 436.316 189.562C436.995 189.365 437.557 189.124 438.001 188.84C438.458 188.544 438.822 188.291 439.094 188.081C439.366 187.859 439.551 187.686 439.649 187.562C440.625 186.254 441.6 185.926 442.576 186.581C443.625 187.309 443.693 188.297 442.779 189.544ZM435.112 175.025C434.68 175.025 434.242 175.099 433.797 175.247C433.353 175.395 432.902 175.648 432.445 176.006C432.001 176.352 431.6 176.778 431.242 177.284C430.884 177.778 430.575 178.408 430.316 179.173C430.069 179.938 429.921 180.784 429.871 181.71C434.711 180.513 437.779 179.315 439.075 178.117C438.495 176.969 437.884 176.167 437.242 175.71C436.612 175.253 435.902 175.025 435.112 175.025ZM453.528 190.97C453.565 192.192 452.929 192.772 451.62 192.711C451.114 192.686 450.707 192.55 450.398 192.303C450.102 192.056 449.929 191.612 449.88 190.97C449.867 190.883 449.787 190.26 449.639 189.099C449.503 187.939 449.423 186.982 449.398 186.229C449.336 184.612 449.404 182.432 449.602 179.692C449.799 176.951 449.904 175.222 449.917 174.506C449.954 173.728 450.176 173.167 450.583 172.821C450.991 172.475 451.485 172.302 452.065 172.302C452.596 172.302 453.022 172.469 453.343 172.802C453.664 173.136 453.806 173.685 453.769 174.451L453.528 176.765C453.812 176.284 454.25 175.802 454.843 175.321C455.448 174.839 456.176 174.389 457.028 173.969C457.892 173.537 458.923 173.197 460.121 172.95C461.318 172.704 462.572 172.599 463.88 172.636C464.152 172.697 464.393 172.969 464.603 173.451C464.825 173.932 464.979 174.488 465.066 175.117C465.164 175.735 465.22 176.364 465.232 177.006C465.257 177.648 465.208 178.167 465.084 178.562C464.998 179.019 464.819 179.371 464.547 179.617C464.275 179.852 463.93 180.025 463.51 180.136C463.065 180.235 462.652 180.136 462.269 179.84C461.886 179.543 461.664 179.167 461.602 178.71C461.553 178.451 461.522 178.111 461.51 177.691C461.51 177.259 461.479 176.907 461.417 176.636C461.355 176.352 461.226 176.099 461.028 175.877C460.201 175.877 459.386 176.037 458.584 176.358C457.781 176.679 457.084 177.074 456.491 177.543C455.898 178 455.355 178.506 454.861 179.062C454.367 179.617 453.979 180.124 453.695 180.58C453.423 181.025 453.232 181.402 453.121 181.71C453.071 183.031 453.059 184.037 453.083 184.729C453.083 185.667 453.151 186.902 453.287 188.433C453.435 189.964 453.516 190.809 453.528 190.97ZM498.138 190.599C498.101 191.377 497.884 191.927 497.489 192.248C497.094 192.581 496.588 192.723 495.971 192.674C495.477 192.649 495.045 192.476 494.674 192.155C494.304 191.834 494.144 191.346 494.193 190.692C494.292 189.544 494.36 187.704 494.397 185.173C494.434 182.63 494.452 180.247 494.452 178.025C494.452 175.79 494.44 173.179 494.415 170.191C494.403 167.191 494.397 165.327 494.397 164.598C494.397 163.956 494.594 163.481 494.989 163.172C495.384 162.851 495.866 162.691 496.434 162.691C496.952 162.691 497.384 162.845 497.73 163.154C498.076 163.45 498.249 163.919 498.249 164.561C498.249 167.833 498.168 172.981 498.008 180.006C499.428 178.722 501.206 177.191 503.342 175.414C505.477 173.623 506.663 172.617 506.897 172.395C507.243 172.049 507.582 171.821 507.916 171.71C508.249 171.599 508.533 171.58 508.768 171.654C509.015 171.728 509.243 171.864 509.453 172.062C510.107 172.765 509.996 173.642 509.12 174.691C508.626 175.272 506.805 176.938 503.656 179.692C504.163 180.605 505.07 181.92 506.379 183.636C507.687 185.34 508.848 186.846 509.86 188.155C510.873 189.451 511.385 190.198 511.397 190.396C511.472 191.26 511.188 191.896 510.546 192.303C510.274 192.488 510.002 192.6 509.731 192.637C509.459 192.674 509.169 192.612 508.86 192.451C508.564 192.303 508.286 192.038 508.027 191.655C507.891 191.458 507.478 190.939 506.786 190.099C506.095 189.248 505.403 188.396 504.712 187.544C504.033 186.692 503.335 185.735 502.619 184.673C501.903 183.599 501.397 182.698 501.101 181.969L498.008 184.673C497.983 184.71 497.959 184.729 497.934 184.729C497.909 185.667 497.94 186.778 498.026 188.062C498.125 189.334 498.162 190.18 498.138 190.599ZM533.036 189.544C532.64 190.087 532.227 190.544 531.795 190.914C531.363 191.285 530.813 191.63 530.147 191.951C529.492 192.285 528.677 192.526 527.702 192.674C526.739 192.834 525.622 192.902 524.35 192.877C521.819 192.84 519.856 191.933 518.461 190.155C517.066 188.377 516.393 185.933 516.442 182.821C516.467 181.13 516.732 179.605 517.238 178.247C517.745 176.877 518.43 175.747 519.294 174.858C520.158 173.957 521.177 173.265 522.35 172.784C523.523 172.302 524.794 172.062 526.165 172.062C526.955 172.062 527.813 172.278 528.739 172.71C529.677 173.142 530.554 173.759 531.369 174.562C532.184 175.364 532.752 176.235 533.073 177.173C533.208 177.803 533.036 178.488 532.554 179.229C532.085 179.969 531.591 180.531 531.072 180.914C530.603 181.26 530.011 181.618 529.295 181.988C528.579 182.358 527.764 182.723 526.85 183.081C525.949 183.439 525.171 183.741 524.517 183.988C523.862 184.235 523.047 184.525 522.072 184.858C521.097 185.192 520.486 185.402 520.239 185.488C520.337 186.105 520.479 186.655 520.665 187.136C520.862 187.618 521.128 188.062 521.461 188.47C521.794 188.865 522.22 189.18 522.739 189.414C523.257 189.636 523.862 189.76 524.554 189.785C525.233 189.822 525.906 189.748 526.572 189.562C527.251 189.365 527.813 189.124 528.258 188.84C528.714 188.544 529.079 188.291 529.35 188.081C529.622 187.859 529.807 187.686 529.906 187.562C530.881 186.254 531.856 185.926 532.832 186.581C533.881 187.309 533.949 188.297 533.036 189.544ZM525.368 175.025C524.936 175.025 524.498 175.099 524.054 175.247C523.609 175.395 523.159 175.648 522.702 176.006C522.257 176.352 521.856 176.778 521.498 177.284C521.14 177.778 520.831 178.408 520.572 179.173C520.325 179.938 520.177 180.784 520.128 181.71C524.967 180.513 528.035 179.315 529.332 178.117C528.751 176.969 528.14 176.167 527.498 175.71C526.869 175.253 526.159 175.025 525.368 175.025ZM543.655 202.822C543.42 203.304 543.056 203.625 542.562 203.785C542.068 203.946 541.568 203.853 541.062 203.508C540.815 203.322 540.617 203.106 540.469 202.859C540.333 202.612 540.253 202.322 540.228 201.989C540.204 201.656 540.296 201.31 540.506 200.952L545.414 191.34C542.303 185.488 539.92 180.346 538.265 175.914C538.043 175.333 537.957 174.833 538.006 174.414C538.068 173.981 538.185 173.642 538.358 173.395C538.543 173.148 538.784 172.963 539.08 172.839C539.303 172.716 539.543 172.648 539.803 172.636C540.062 172.611 540.327 172.648 540.599 172.747C540.87 172.846 541.13 173.043 541.377 173.339C541.624 173.636 541.815 174.025 541.951 174.506C542.371 175.864 542.932 177.401 543.636 179.117C544.34 180.834 544.932 182.216 545.414 183.266C545.908 184.303 546.568 185.68 547.395 187.396C550.038 182.062 552.025 177.679 553.359 174.247C553.519 173.815 553.717 173.457 553.951 173.173C554.186 172.889 554.427 172.697 554.674 172.599C554.933 172.5 555.18 172.45 555.414 172.45C555.661 172.45 555.896 172.5 556.118 172.599C556.316 172.697 556.495 172.833 556.655 173.006C556.828 173.167 556.97 173.376 557.081 173.636C557.205 173.883 557.26 174.191 557.248 174.562C557.235 174.92 557.143 175.302 556.97 175.71C556.365 177.154 555.464 179.117 554.266 181.599C553.069 184.081 551.914 186.426 550.803 188.636C549.692 190.846 547.92 194.371 545.488 199.211C544.685 200.779 544.074 201.983 543.655 202.822ZM579.33 190.396C579.355 190.902 579.219 191.322 578.923 191.655C578.627 191.988 578.102 192.155 577.349 192.155C577.028 192.155 574.781 192.13 570.608 192.081C566.447 192.044 563.743 192.025 562.496 192.025C561.928 192.025 561.515 191.871 561.255 191.563C560.996 191.254 560.867 190.865 560.867 190.396C560.842 189.89 560.959 189.47 561.218 189.136C561.49 188.791 561.928 188.618 562.533 188.618C563.669 188.618 565.62 188.643 568.385 188.692C568.385 187.692 568.367 186.871 568.33 186.229C568.28 183.982 568.28 180.901 568.33 176.988C568.379 173.074 568.447 169.537 568.534 166.376C567.731 166.438 566.243 166.469 564.07 166.469C563.527 166.469 563.107 166.29 562.811 165.932C562.527 165.561 562.397 165.141 562.422 164.672C562.422 164.253 562.558 163.901 562.83 163.617C563.101 163.32 563.502 163.172 564.033 163.172C565.811 163.172 567.243 163.148 568.33 163.098C569.416 163.049 570.367 163.036 571.182 163.061C571.515 163.061 571.744 163.246 571.867 163.617C572.188 163.74 572.349 163.944 572.349 164.228C572.213 165.03 572.102 167.166 572.015 170.636C571.941 174.093 571.904 176.679 571.904 178.395C571.904 180.914 571.916 183.025 571.941 184.729C571.941 185.667 571.972 187.031 572.034 188.822C572.762 188.834 573.534 188.852 574.349 188.877C575.176 188.89 575.849 188.902 576.367 188.914C576.886 188.927 577.238 188.933 577.423 188.933C578.127 188.933 578.614 189.069 578.886 189.34C579.158 189.612 579.306 189.964 579.33 190.396ZM591.635 192.84C590.4 192.816 589.264 192.519 588.227 191.951C587.202 191.383 586.35 190.637 585.671 189.711C585.005 188.772 584.486 187.704 584.116 186.507C583.745 185.297 583.573 184.037 583.597 182.729C583.597 181.21 583.795 179.803 584.19 178.506C584.597 177.198 585.178 176.062 585.931 175.099C586.684 174.123 587.641 173.364 588.801 172.821C589.974 172.265 591.295 171.987 592.764 171.987C593.678 171.987 594.542 172.117 595.357 172.376C596.184 172.623 596.968 173.037 597.709 173.617C598.45 174.185 599.073 174.901 599.58 175.765C600.098 176.617 600.487 177.691 600.746 178.988C601.018 180.284 601.104 181.735 601.006 183.34C600.907 184.883 600.66 186.229 600.265 187.377C599.882 188.525 599.32 189.519 598.579 190.359C597.851 191.198 596.907 191.822 595.746 192.229C594.585 192.649 593.215 192.853 591.635 192.84ZM592.45 189.636C593.215 189.674 593.894 189.525 594.487 189.192C595.092 188.859 595.579 188.371 595.95 187.729C596.32 187.087 596.61 186.346 596.82 185.507C597.03 184.667 597.153 183.729 597.191 182.692C597.289 180.013 596.894 178.056 596.005 176.821C595.129 175.574 593.876 174.951 592.246 174.951C590.764 174.951 589.635 175.63 588.857 176.988C588.079 178.333 587.622 180.222 587.486 182.655C587.462 183.482 587.48 184.223 587.542 184.877C587.616 185.531 587.758 186.155 587.968 186.747C588.19 187.34 588.486 187.834 588.857 188.229C589.227 188.624 589.709 188.945 590.301 189.192C590.906 189.439 591.622 189.587 592.45 189.636ZM623.088 193.396C622.965 194.655 622.681 195.81 622.236 196.859C621.792 197.908 621.23 198.797 620.551 199.526C619.884 200.267 619.119 200.89 618.255 201.396C617.403 201.915 616.501 202.291 615.551 202.526C614.6 202.773 613.619 202.896 612.606 202.896C611.816 202.896 611.026 202.785 610.236 202.563C609.445 202.341 608.803 202.1 608.31 201.841C608.273 201.816 608.18 201.767 608.032 201.693C607.896 201.619 607.81 201.569 607.773 201.544C607.736 201.532 607.661 201.489 607.55 201.415C607.452 201.353 607.39 201.304 607.365 201.267C607.34 201.242 607.291 201.193 607.217 201.119C607.143 201.057 607.1 201.001 607.087 200.952C607.075 200.902 607.05 200.835 607.013 200.748C606.976 200.662 606.952 200.569 606.939 200.47C606.939 200.384 606.939 200.285 606.939 200.174C606.939 199.68 607.106 199.267 607.439 198.933C607.773 198.6 608.143 198.476 608.55 198.563C608.736 198.588 609.007 198.699 609.365 198.896C609.736 199.106 610.143 199.297 610.588 199.47C611.032 199.643 611.464 199.73 611.884 199.73C613.18 199.73 614.396 199.458 615.532 198.915C616.68 198.371 617.631 197.6 618.384 196.6C619.137 195.6 619.606 194.464 619.792 193.192C619.878 192.661 619.946 191.729 619.995 190.396C618.736 192.137 616.711 193.007 613.921 193.007C611.439 192.958 609.631 192.124 608.495 190.507C607.371 188.89 606.81 186.488 606.81 183.303C606.834 181.784 607.044 180.414 607.439 179.192C607.847 177.957 608.378 176.932 609.032 176.117C609.699 175.29 610.489 174.605 611.402 174.062C612.316 173.506 613.273 173.111 614.273 172.876C615.285 172.629 616.353 172.506 617.477 172.506C618.822 172.506 619.785 172.562 620.366 172.673C620.946 172.784 621.526 173 622.107 173.321C622.341 173.444 622.508 173.636 622.607 173.895C622.705 174.142 622.742 174.389 622.718 174.636C622.705 174.883 622.65 175.093 622.551 175.265C622.539 175.29 622.508 175.333 622.458 175.395C622.421 175.444 622.397 175.481 622.384 175.506C623.014 175.667 623.329 176.154 623.329 176.969C623.329 177.031 623.341 178.451 623.366 181.229C623.403 183.994 623.397 186.34 623.347 188.266C623.31 190.18 623.224 191.89 623.088 193.396ZM610.421 182.081C610.396 182.883 610.39 183.655 610.402 184.395C610.427 185.136 610.526 185.834 610.699 186.488C610.884 187.143 611.118 187.71 611.402 188.192C611.699 188.673 612.1 189.05 612.606 189.322C613.112 189.581 613.699 189.698 614.365 189.674C615.106 189.649 615.785 189.525 616.403 189.303C617.02 189.081 617.532 188.803 617.94 188.47C618.359 188.124 618.724 187.729 619.032 187.285C619.341 186.828 619.576 186.383 619.736 185.951C619.897 185.507 620.014 185.056 620.088 184.599C620.1 183.858 620.113 182.655 620.125 180.988C620.137 179.309 620.15 178.037 620.162 177.173C620.162 176.864 620.242 176.568 620.403 176.284L620.162 176.247C618.829 175.852 617.6 175.673 616.477 175.71C615.946 175.735 615.421 175.827 614.903 175.988C614.396 176.136 613.878 176.377 613.347 176.71C612.828 177.043 612.365 177.445 611.958 177.914C611.551 178.383 611.205 178.975 610.921 179.692C610.649 180.408 610.483 181.204 610.421 182.081ZM645.652 193.396C645.529 194.655 645.245 195.81 644.8 196.859C644.356 197.908 643.794 198.797 643.115 199.526C642.448 200.267 641.683 200.89 640.819 201.396C639.967 201.915 639.065 202.291 638.115 202.526C637.164 202.773 636.183 202.896 635.17 202.896C634.38 202.896 633.59 202.785 632.8 202.563C632.01 202.341 631.368 202.1 630.874 201.841C630.837 201.816 630.744 201.767 630.596 201.693C630.46 201.619 630.374 201.569 630.337 201.544C630.3 201.532 630.225 201.489 630.114 201.415C630.016 201.353 629.954 201.304 629.929 201.267C629.904 201.242 629.855 201.193 629.781 201.119C629.707 201.057 629.664 201.001 629.651 200.952C629.639 200.902 629.614 200.835 629.577 200.748C629.54 200.662 629.516 200.569 629.503 200.47C629.503 200.384 629.503 200.285 629.503 200.174C629.503 199.68 629.67 199.267 630.003 198.933C630.337 198.6 630.707 198.476 631.114 198.563C631.3 198.588 631.571 198.699 631.929 198.896C632.3 199.106 632.707 199.297 633.152 199.47C633.596 199.643 634.028 199.73 634.448 199.73C635.744 199.73 636.96 199.458 638.096 198.915C639.244 198.371 640.195 197.6 640.948 196.6C641.701 195.6 642.171 194.464 642.356 193.192C642.442 192.661 642.51 191.729 642.559 190.396C641.3 192.137 639.275 193.007 636.485 193.007C634.003 192.958 632.195 192.124 631.059 190.507C629.935 188.89 629.374 186.488 629.374 183.303C629.398 181.784 629.608 180.414 630.003 179.192C630.411 177.957 630.942 176.932 631.596 176.117C632.263 175.29 633.053 174.605 633.966 174.062C634.88 173.506 635.837 173.111 636.837 172.876C637.849 172.629 638.917 172.506 640.041 172.506C641.387 172.506 642.35 172.562 642.93 172.673C643.51 172.784 644.09 173 644.671 173.321C644.905 173.444 645.072 173.636 645.171 173.895C645.269 174.142 645.306 174.389 645.282 174.636C645.269 174.883 645.214 175.093 645.115 175.265C645.103 175.29 645.072 175.333 645.023 175.395C644.985 175.444 644.961 175.481 644.948 175.506C645.578 175.667 645.893 176.154 645.893 176.969C645.893 177.031 645.905 178.451 645.93 181.229C645.967 183.994 645.961 186.34 645.911 188.266C645.874 190.18 645.788 191.89 645.652 193.396ZM632.985 182.081C632.96 182.883 632.954 183.655 632.966 184.395C632.991 185.136 633.09 185.834 633.263 186.488C633.448 187.143 633.682 187.71 633.966 188.192C634.263 188.673 634.664 189.05 635.17 189.322C635.676 189.581 636.263 189.698 636.93 189.674C637.67 189.649 638.349 189.525 638.967 189.303C639.584 189.081 640.096 188.803 640.504 188.47C640.924 188.124 641.288 187.729 641.596 187.285C641.905 186.828 642.14 186.383 642.3 185.951C642.461 185.507 642.578 185.056 642.652 184.599C642.664 183.858 642.677 182.655 642.689 180.988C642.701 179.309 642.714 178.037 642.726 177.173C642.726 176.864 642.806 176.568 642.967 176.284L642.726 176.247C641.393 175.852 640.164 175.673 639.041 175.71C638.51 175.735 637.985 175.827 637.467 175.988C636.96 176.136 636.442 176.377 635.911 176.71C635.392 177.043 634.929 177.445 634.522 177.914C634.115 178.383 633.769 178.975 633.485 179.692C633.213 180.408 633.047 181.204 632.985 182.081ZM668.42 189.544C668.025 190.087 667.611 190.544 667.179 190.914C666.747 191.285 666.198 191.63 665.531 191.951C664.877 192.285 664.062 192.526 663.086 192.674C662.123 192.834 661.006 192.902 659.734 192.877C657.203 192.84 655.24 191.933 653.845 190.155C652.45 188.377 651.777 185.933 651.827 182.821C651.851 181.13 652.117 179.605 652.623 178.247C653.129 176.877 653.814 175.747 654.679 174.858C655.543 173.957 656.561 173.265 657.734 172.784C658.907 172.302 660.179 172.062 661.549 172.062C662.339 172.062 663.197 172.278 664.123 172.71C665.062 173.142 665.938 173.759 666.753 174.562C667.568 175.364 668.136 176.235 668.457 177.173C668.593 177.803 668.42 178.488 667.938 179.229C667.469 179.969 666.975 180.531 666.457 180.914C665.988 181.26 665.395 181.618 664.679 181.988C663.963 182.358 663.148 182.723 662.234 183.081C661.333 183.439 660.555 183.741 659.901 183.988C659.247 184.235 658.432 184.525 657.456 184.858C656.481 185.192 655.87 185.402 655.623 185.488C655.722 186.105 655.864 186.655 656.049 187.136C656.247 187.618 656.512 188.062 656.845 188.47C657.179 188.865 657.605 189.18 658.123 189.414C658.642 189.636 659.247 189.76 659.938 189.785C660.617 189.822 661.29 189.748 661.957 189.562C662.636 189.365 663.197 189.124 663.642 188.84C664.099 188.544 664.463 188.291 664.735 188.081C665.006 187.859 665.191 187.686 665.29 187.562C666.266 186.254 667.241 185.926 668.216 186.581C669.266 187.309 669.334 188.297 668.42 189.544ZM660.753 175.025C660.321 175.025 659.882 175.099 659.438 175.247C658.994 175.395 658.543 175.648 658.086 176.006C657.642 176.352 657.24 176.778 656.882 177.284C656.524 177.778 656.216 178.408 655.956 179.173C655.709 179.938 655.561 180.784 655.512 181.71C660.352 180.513 663.42 179.315 664.716 178.117C664.136 176.969 663.525 176.167 662.883 175.71C662.253 175.253 661.543 175.025 660.753 175.025ZM679.169 190.97C679.206 192.192 678.57 192.772 677.261 192.711C676.755 192.686 676.348 192.55 676.039 192.303C675.743 192.056 675.57 191.612 675.52 190.97C675.508 190.883 675.428 190.26 675.28 189.099C675.144 187.939 675.063 186.982 675.039 186.229C674.977 184.612 675.045 182.432 675.243 179.692C675.44 176.951 675.545 175.222 675.557 174.506C675.594 173.728 675.817 173.167 676.224 172.821C676.631 172.475 677.125 172.302 677.706 172.302C678.236 172.302 678.662 172.469 678.983 172.802C679.304 173.136 679.446 173.685 679.409 174.451L679.169 176.765C679.453 176.284 679.891 175.802 680.484 175.321C681.088 174.839 681.817 174.389 682.669 173.969C683.533 173.537 684.564 173.197 685.762 172.95C686.959 172.704 688.212 172.599 689.521 172.636C689.793 172.697 690.033 172.969 690.243 173.451C690.465 173.932 690.62 174.488 690.706 175.117C690.805 175.735 690.861 176.364 690.873 177.006C690.898 177.648 690.848 178.167 690.725 178.562C690.638 179.019 690.459 179.371 690.188 179.617C689.916 179.852 689.57 180.025 689.151 180.136C688.706 180.235 688.293 180.136 687.91 179.84C687.527 179.543 687.305 179.167 687.243 178.71C687.194 178.451 687.163 178.111 687.151 177.691C687.151 177.259 687.12 176.907 687.058 176.636C686.996 176.352 686.867 176.099 686.669 175.877C685.842 175.877 685.027 176.037 684.224 176.358C683.422 176.679 682.724 177.074 682.132 177.543C681.539 178 680.996 178.506 680.502 179.062C680.008 179.617 679.619 180.124 679.335 180.58C679.064 181.025 678.872 181.402 678.761 181.71C678.712 183.031 678.699 184.037 678.724 184.729C678.724 185.667 678.792 186.902 678.928 188.433C679.076 189.964 679.156 190.809 679.169 190.97Z" fill="#7D769F"/>
</g>
<g filter="url(#filter2_d_510_34)">
<path d="M178.819 14.0586H20.2915C13.5846 14.0586 8.09717 19.5461 8.09717 26.253V184.78C8.09717 191.487 13.5846 196.974 20.2915 196.974H178.819C185.525 196.974 191.013 191.487 191.013 184.78V26.253C191.013 19.5461 185.525 14.0586 178.819 14.0586Z" fill="#544B86"/>
<path d="M187.507 17.5645C185.221 15.4305 182.172 14.0586 178.819 14.0586H20.2916C13.5846 14.0586 8.09717 19.5461 8.09717 26.253V184.78C8.09717 188.133 9.46904 191.182 11.6031 193.468L37.2113 167.86H153.058C158.088 167.86 162.051 163.745 162.051 158.867V43.0203L187.507 17.5645Z" fill="#BBB7CD"/>
<path d="M187.37 17.428C185.084 15.294 182.035 13.9221 178.682 13.9221L20.1548 13.9221C13.4479 13.9221 7.96045 19.4096 7.96045 26.1165L7.96045 184.643C7.96045 187.997 9.33232 191.046 11.4663 193.332L37.0745 167.724L37.0746 42.8838L128.36 42.8838L161.915 42.8838L187.37 17.428Z" fill="#B8B5C2"/>
<g opacity="0.5" filter="url(#filter3_b_510_34)">
<path d="M62.6408 42.7635C41.7144 44.5479 52.6467 78.5087 50.4792 92.4032C55.6618 92.4032 55.6618 80.3613 59.9298 73.6543C63.6333 67.6876 101.846 41.4851 62.6408 42.7635Z" fill="#E8E4F8"/>
<path d="M62.6408 42.7635C29.8576 44.9491 30.561 90.7007 50.4792 92.4032C52.6467 78.5087 41.7144 44.5479 62.6408 42.7635Z" fill="#E8E4F8"/>
</g>
<g filter="url(#filter4_i_510_34)">
<g clip-path="url(#clip0_510_34)">
<path d="M60.8632 127.813C61.3576 127.358 66.2345 127.673 66.2345 127.673L66.2901 122.513L68.6756 119.786L74.3298 119.694L74.3352 119.686C74.3591 119.763 74.338 114.011 74.338 114.011L76.9773 112.098C76.9773 112.098 82.1105 111.948 82.1528 111.908L82.5653 106.635L87.3177 101.009C85.6755 97.4655 84.7286 93.5276 84.7286 89.3621C84.7286 74.0362 97.1641 61.6113 112.503 61.6113C127.85 61.6083 140.286 74.0332 140.286 89.3591C140.286 104.688 127.85 117.115 112.509 117.115C108.253 117.115 104.236 116.129 100.631 114.417L69.0406 146.199C69.0406 146.199 55.6665 146.235 55.6665 146.23L55.6453 132.732C55.6453 132.732 57.7452 130.685 60.8632 127.813ZM117.808 90.7345C121.445 90.7345 124.391 87.7697 124.391 84.1122C124.391 80.4548 121.445 77.4873 117.808 77.4873C114.172 77.4873 111.223 80.4545 111.223 84.1122C111.223 87.77 114.172 90.7345 117.808 90.7345Z" fill="#EFC75E"/>
<path d="M117.803 74.8342C122.915 74.8342 127.06 78.9786 127.06 84.0906C127.06 89.2027 122.915 93.347 117.803 93.347C112.688 93.347 108.547 89.2027 108.547 84.0906C108.547 78.9786 112.688 74.8342 117.803 74.8342ZM117.803 88.0579C119.993 88.0579 121.77 86.2805 121.77 84.0909C121.77 81.8986 119.993 80.124 117.803 80.124C115.613 80.124 113.836 81.8986 113.836 84.0909C113.836 86.2805 115.613 88.0579 117.803 88.0579Z" fill="#CA9F30"/>
<path d="M94.276 110.268C96.8017 112.468 99.7241 114.206 102.927 115.388L71.5212 146.244H58.2979L94.276 110.268Z" fill="#CA9F30"/>
</g>
</g>
</g>
<defs>
<filter id="filter0_d_510_34" x="227.083" y="18.1787" width="427.087" height="105.19" filterUnits="userSpaceOnUse" color-interpolation-filters="sRGB">
<feFlood flood-opacity="0" result="BackgroundImageFix"/>
<feColorMatrix in="SourceAlpha" type="matrix" values="0 0 0 0 0 0 0 0 0 0 0 0 0 0 0 0 0 0 127 0" result="hardAlpha"/>
<feOffset dy="1.18524"/>
<feGaussianBlur stdDeviation="0.592622"/>
<feComposite in2="hardAlpha" operator="out"/>
<feColorMatrix type="matrix" values="0 0 0 0 0 0 0 0 0 0 0 0 0 0 0 0 0 0 0.25 0"/>
<feBlend mode="normal" in2="BackgroundImageFix" result="effect1_dropShadow_510_34"/>
<feBlend mode="normal" in="SourceGraphic" in2="effect1_dropShadow_510_34" result="shape"/>
</filter>
<filter id="filter1_d_510_34" x="221.72" y="162.654" width="470.375" height="43.743" filterUnits="userSpaceOnUse" color-interpolation-filters="sRGB">
<feFlood flood-opacity="0" result="BackgroundImageFix"/>
<feColorMatrix in="SourceAlpha" type="matrix" values="0 0 0 0 0 0 0 0 0 0 0 0 0 0 0 0 0 0 127 0" result="hardAlpha"/>
<feOffset dy="1.18524"/>
<feGaussianBlur stdDeviation="0.592622"/>
<feComposite in2="hardAlpha" operator="out"/>
<feColorMatrix type="matrix" values="0 0 0 0 0 0 0 0 0 0 0 0 0 0 0 0 0 0 0.25 0"/>
<feBlend mode="normal" in2="BackgroundImageFix" result="effect1_dropShadow_510_34"/>
<feBlend mode="normal" in="SourceGraphic" in2="effect1_dropShadow_510_34" result="shape"/>
</filter>
<filter id="filter2_d_510_34" x="0.814757" y="7.96143" width="197.481" height="197.481" filterUnits="userSpaceOnUse" color-interpolation-filters="sRGB">
<feFlood flood-opacity="0" result="BackgroundImageFix"/>
<feColorMatrix in="SourceAlpha" type="matrix" values="0 0 0 0 0 0 0 0 0 0 0 0 0 0 0 0 0 0 127 0" result="hardAlpha"/>
<feOffset dy="1.18524"/>
<feGaussianBlur stdDeviation="0.592622"/>
<feComposite in2="hardAlpha" operator="out"/>
<feColorMatrix type="matrix" values="0 0 0 0 0 0 0 0 0 0 0 0 0 0 0 0 0 0 0.25 0"/>
<feBlend mode="normal" in2="BackgroundImageFix" result="effect1_dropShadow_510_34"/>
<feBlend mode="normal" in="SourceGraphic" in2="effect1_dropShadow_510_34" result="shape"/>
</filter>
<filter id="filter3_b_510_34" x="35.3758" y="41.533" width="45.9948" height="52.0553" filterUnits="userSpaceOnUse" color-interpolation-filters="sRGB">
<feFlood flood-opacity="0" result="BackgroundImageFix"/>
<feGaussianBlur in="BackgroundImageFix" stdDeviation="0.592622"/>
<feComposite in2="SourceAlpha" operator="in" result="effect1_backgroundBlur_510_34"/>
<feBlend mode="normal" in="SourceGraphic" in2="effect1_backgroundBlur_510_34" result="shape"/>
</filter>
<filter id="filter4_i_510_34" x="55.6453" y="61.6069" width="84.6404" height="85.8256" filterUnits="userSpaceOnUse" color-interpolation-filters="sRGB">
<feFlood flood-opacity="0" result="BackgroundImageFix"/>
<feBlend mode="normal" in="SourceGraphic" in2="BackgroundImageFix" result="shape"/>
<feColorMatrix in="SourceAlpha" type="matrix" values="0 0 0 0 0 0 0 0 0 0 0 0 0 0 0 0 0 0 127 0" result="hardAlpha"/>
<feOffset dy="1.18524"/>
<feGaussianBlur stdDeviation="0.592622"/>
<feComposite in2="hardAlpha" operator="arithmetic" k2="-1" k3="1"/>
<feColorMatrix type="matrix" values="0 0 0 0 0 0 0 0 0 0 0 0 0 0 0 0 0 0 0.25 0"/>
<feBlend mode="normal" in2="shape" result="effect1_innerShadow_510_34"/>
</filter>
<clipPath id="clip0_510_34">
<rect width="84.6404" height="84.6404" transform="matrix(-1 0 0 1 140.286 61.6069)" fill="white"/>
</clipPath>
</defs>
</svg>
