<svg width="436" height="132" viewBox="0 0 436 132" fill="none" xmlns="http://www.w3.org/2000/svg">
<path d="M134.753 11.1852C135.538 11.0342 136.505 10.9284 137.653 10.868C138.831 10.7774 139.783 10.732 140.508 10.732C141.263 10.732 142.17 10.7623 143.227 10.8227C144.315 10.8529 145.327 10.9435 146.264 11.0946L143.726 22.3336L143.001 22.4696C143.122 24.5845 143.227 26.941 143.318 29.5393C143.439 32.1074 143.529 34.7208 143.59 37.3795C143.68 40.008 143.726 42.4401 143.726 44.6758V73C142.91 73.1208 142.125 73.2115 141.369 73.2719C140.614 73.3323 139.919 73.3625 139.285 73.3625C138.68 73.3625 137.97 73.3323 137.155 73.2719C136.339 73.2115 135.538 73.1208 134.753 73V11.1852ZM149.073 34.9776C147.956 32.7418 146.913 30.5666 145.946 28.4517C145.01 26.3368 144.119 24.3126 143.273 22.379L138.741 16.9407L146.264 11.0946L165.433 49.0717C166.582 51.4585 167.654 53.7849 168.651 56.0508C169.678 58.2865 170.63 60.3259 171.506 62.1688L176.265 67.1992L168.379 73L149.073 34.9776ZM179.935 11.2306V72.9094C179.18 73.0604 178.244 73.1662 177.126 73.2266C176.038 73.3172 175.041 73.3625 174.135 73.3625C173.259 73.3625 172.322 73.3323 171.325 73.2719C170.328 73.2115 169.346 73.1208 168.379 73L171.008 62.2141L171.778 62.1235C171.627 59.7065 171.491 57.1384 171.37 54.4193C171.249 51.67 171.159 48.9811 171.098 46.3526C171.068 43.7241 171.053 41.3675 171.053 39.2829V16.7141C171.053 14.5992 171.416 13.0735 172.141 12.1369C172.896 11.2003 174.256 10.732 176.219 10.732H179.392L179.935 11.2306ZM228.081 11.0946C228.836 10.9737 229.758 10.8831 230.845 10.8227C231.963 10.7623 232.915 10.732 233.7 10.732C234.456 10.732 235.377 10.7623 236.465 10.8227C237.553 10.8831 238.429 10.9889 239.093 11.1399L259.442 72.4109C258.747 72.8338 257.886 73.136 256.858 73.3172C255.861 73.5287 254.849 73.6345 253.822 73.6345C252.281 73.6345 251.088 73.287 250.242 72.5921C249.426 71.8972 248.701 70.5377 248.067 68.5134L238.096 37.0169C237.25 34.3884 236.405 31.5938 235.559 28.633C234.713 25.6721 233.957 22.9983 233.293 20.6115H232.839C232.537 21.9711 232.16 23.4515 231.706 25.0528C231.283 26.654 230.861 28.2251 230.438 29.7659C230.015 31.2765 229.637 32.5908 229.305 33.7086L216.797 73.0906C216.192 73.2115 215.528 73.3021 214.803 73.3625C214.108 73.423 213.383 73.4532 212.627 73.4532C211.781 73.4532 210.935 73.3928 210.089 73.2719C209.274 73.1511 208.549 73 207.914 72.8187L207.642 72.3202L228.081 11.0946ZM226.857 58.0448C226.585 58.0448 226.011 58.0448 225.135 58.0448C224.289 58.0146 223.428 57.9995 222.552 57.9995C221.706 57.9693 221.132 57.9542 220.83 57.9542H216.343L219.334 50.114H223.277C223.579 50.114 224.108 50.114 224.863 50.114C225.619 50.0838 226.374 50.0687 227.129 50.0687C227.915 50.0385 228.444 50.0234 228.715 50.0234H237.734C238.036 50.0234 238.565 50.0385 239.32 50.0687C240.075 50.0687 240.846 50.0838 241.631 50.114C242.447 50.114 242.991 50.114 243.263 50.114H247.341L249.925 57.9542H245.438C245.136 57.9542 244.547 57.9693 243.671 57.9995C242.794 57.9995 241.918 58.0146 241.042 58.0448C240.196 58.0448 239.622 58.0448 239.32 58.0448H226.857ZM368.524 73.0906H364.446C362.814 73.0906 361.47 72.577 360.412 71.5498C359.355 70.5226 358.826 69.0271 358.826 67.0632V11.2759L359.415 10.732H363.132C365.095 10.732 366.485 11.2306 367.301 12.2276C368.117 13.1944 368.524 14.7352 368.524 16.8501V73.0906ZM394.583 64.6614C394.583 67.9243 394.084 70.1449 393.087 71.3232C392.09 72.5015 390.428 73.0906 388.102 73.0906H364.446L359.461 66.0209C362.27 65.5677 365.201 65.2354 368.253 65.0239C371.304 64.7822 374.084 64.6614 376.591 64.6614H394.583Z" fill="#5F588B"/>
<path d="M287.116 11.0946C287.811 10.9435 288.611 10.8529 289.518 10.8227C290.424 10.7623 291.209 10.732 291.874 10.732C292.66 10.732 293.491 10.7623 294.367 10.8227C295.243 10.8529 296.043 10.9435 296.769 11.0946V73C296.043 73.1208 295.243 73.2115 294.367 73.2719C293.491 73.3323 292.66 73.3625 291.874 73.3625C291.209 73.3625 290.424 73.3323 289.518 73.2719C288.611 73.2115 287.811 73.1208 287.116 73V11.0946ZM331.483 70.5075C330.818 71.4743 329.866 72.2296 328.628 72.7734C327.389 73.287 326.165 73.5438 324.957 73.5438C323.053 73.5438 321.679 73.0604 320.833 72.0936C320.017 71.1268 319.262 69.6615 318.567 67.6977L313.672 54.4646C312.404 50.9902 310.968 48.5732 309.367 47.2136C307.766 45.8541 305.621 45.1743 302.932 45.1743C301.965 45.1743 300.56 45.2045 298.717 45.2649C296.874 45.3254 294.563 45.4462 291.784 45.6275V39.2829H307.373C310.455 39.2829 312.932 39.736 314.805 40.6424C316.679 41.5186 318.204 42.8177 319.383 44.5398C320.561 46.2317 321.603 48.3164 322.51 50.7938L327.449 63.8909C327.933 65.1599 328.371 66.2022 328.764 67.0179C329.187 67.8337 329.61 68.5134 330.033 69.0573C330.486 69.5709 330.969 70.0543 331.483 70.5075ZM316.935 14.7201C317.661 13.421 318.401 12.4542 319.156 11.8197C319.911 11.155 321.105 10.8227 322.736 10.8227C323.552 10.8227 324.428 10.8378 325.365 10.868C326.332 10.8982 327.283 10.9586 328.22 11.0493L328.854 11.865L315.123 35.1135C313.793 37.4701 312.117 39.3282 310.092 40.6877C308.098 42.0473 305.576 42.7271 302.524 42.7271H291.784V37.1529C293.324 37.0924 295.016 37.0471 296.859 37.0169C298.702 36.9565 300.364 36.9263 301.844 36.9263C302.751 36.9263 303.415 36.7299 303.838 36.3371C304.292 35.9444 304.775 35.2948 305.289 34.3884L316.935 14.7201Z" fill="#EFC75E"/>
<path d="M137.738 112.683C137.738 113.137 137.614 113.458 137.364 113.646C137.123 113.843 136.824 113.926 136.469 113.896C136.19 113.881 135.956 113.779 135.767 113.59C135.578 113.401 135.472 113.099 135.45 112.683C135.45 112.555 135.412 112.177 135.336 111.55C135.268 110.924 135.227 110.391 135.212 109.953C135.167 108.941 135.201 107.566 135.314 105.829C135.435 104.092 135.499 103.083 135.506 102.804C135.514 102.321 135.65 101.969 135.914 101.75C136.186 101.524 136.496 101.418 136.843 101.433C137.176 101.433 137.44 101.539 137.636 101.75C137.833 101.954 137.908 102.298 137.863 102.781C137.833 103.106 137.806 103.359 137.784 103.54C138.154 102.974 138.675 102.498 139.347 102.113C140.019 101.728 140.824 101.535 141.76 101.535C142.833 101.535 143.641 101.928 144.185 102.713C144.729 103.491 145.02 104.586 145.057 105.999C145.088 106.943 145.205 108.148 145.409 109.613C145.613 111.071 145.73 112.034 145.76 112.502C145.782 112.986 145.699 113.337 145.511 113.556C145.322 113.782 145.072 113.896 144.763 113.896C144.423 113.911 144.125 113.805 143.868 113.578C143.618 113.359 143.479 113.001 143.449 112.502C143.433 112.359 143.35 111.626 143.199 110.304C143.056 108.975 142.965 107.887 142.927 107.041C142.859 105.719 142.731 104.832 142.542 104.379C142.361 103.926 141.991 103.699 141.432 103.699C141.047 103.699 140.673 103.763 140.31 103.892C139.948 104.012 139.63 104.171 139.359 104.367C139.087 104.556 138.826 104.787 138.577 105.059C138.328 105.323 138.124 105.576 137.965 105.818C137.806 106.059 137.655 106.312 137.512 106.577C137.459 107.46 137.444 108.28 137.466 109.035C137.466 109.572 137.512 110.255 137.602 111.086C137.693 111.917 137.738 112.449 137.738 112.683ZM137.115 107.687V107.642V107.687ZM153.661 113.998C152.906 113.983 152.211 113.801 151.576 113.454C150.95 113.106 150.428 112.649 150.013 112.083C149.605 111.509 149.288 110.856 149.061 110.123C148.835 109.383 148.729 108.612 148.744 107.812C148.744 106.883 148.865 106.022 149.107 105.228C149.356 104.428 149.711 103.733 150.172 103.144C150.632 102.547 151.218 102.083 151.928 101.75C152.645 101.41 153.453 101.24 154.352 101.24C154.911 101.24 155.44 101.32 155.938 101.478C156.444 101.629 156.924 101.882 157.377 102.237C157.83 102.585 158.212 103.023 158.522 103.552C158.839 104.073 159.077 104.73 159.235 105.523C159.401 106.316 159.454 107.204 159.394 108.186C159.334 109.13 159.182 109.953 158.941 110.655C158.707 111.358 158.363 111.966 157.91 112.479C157.464 112.993 156.886 113.375 156.176 113.624C155.466 113.881 154.628 114.005 153.661 113.998ZM154.16 112.038C154.628 112.06 155.043 111.97 155.406 111.766C155.776 111.562 156.074 111.263 156.301 110.871C156.528 110.478 156.705 110.025 156.833 109.511C156.962 108.997 157.037 108.423 157.06 107.789C157.12 106.15 156.879 104.953 156.335 104.197C155.799 103.435 155.032 103.053 154.035 103.053C153.129 103.053 152.438 103.469 151.962 104.299C151.486 105.123 151.206 106.278 151.123 107.766C151.108 108.272 151.119 108.726 151.157 109.126C151.203 109.526 151.289 109.908 151.418 110.27C151.554 110.633 151.735 110.935 151.962 111.177C152.188 111.418 152.483 111.615 152.845 111.766C153.215 111.917 153.654 112.007 154.16 112.038ZM171.884 113.578C171.03 113.903 169.995 114.051 168.779 114.02C168.19 113.998 167.643 113.892 167.137 113.703C166.638 113.522 166.192 113.265 165.8 112.933C165.407 112.593 165.094 112.158 164.859 111.63C164.625 111.101 164.501 110.508 164.485 109.851C164.463 109.609 164.455 109.228 164.463 108.707C164.478 108.186 164.482 107.834 164.474 107.653C164.474 107.472 164.489 107.147 164.519 106.679C164.55 106.203 164.569 105.893 164.576 105.75C164.584 105.599 164.603 105.3 164.633 104.855C164.671 104.409 164.697 104.122 164.712 103.994H163.568C162.888 103.994 162.563 103.654 162.593 102.974C162.593 102.309 162.926 101.977 163.59 101.977C164.089 101.977 164.493 101.988 164.803 102.011C164.856 100.916 164.825 99.7487 164.712 98.51C164.682 98.2683 164.742 98.0341 164.893 97.8075C165.052 97.5809 165.263 97.4676 165.528 97.4676C165.807 97.4676 166.106 97.5658 166.423 97.7622C166.748 97.9586 166.929 98.1663 166.967 98.3853C167.027 98.9518 167.027 100.175 166.967 102.056C167.465 102.071 168.073 102.09 168.791 102.113C169.516 102.135 170.105 102.154 170.558 102.169C171.011 102.177 171.329 102.181 171.51 102.181C172.175 102.181 172.507 102.521 172.507 103.2C172.492 103.465 172.412 103.676 172.269 103.835C172.125 103.986 171.872 104.062 171.51 104.062C171.147 104.062 169.607 104.046 166.887 104.016C166.88 104.296 166.861 104.764 166.831 105.421C166.801 106.078 166.782 106.524 166.774 106.758C166.767 106.992 166.751 107.392 166.729 107.959C166.706 108.525 166.699 108.858 166.706 108.956C166.714 109.054 166.717 109.296 166.717 109.681C166.755 110.368 166.982 110.927 167.397 111.358C167.82 111.781 168.398 112.007 169.131 112.038C170.097 112.068 171.015 111.894 171.884 111.516C172.118 111.418 172.329 111.433 172.518 111.562C172.707 111.69 172.835 111.905 172.903 112.208C172.956 112.502 172.881 112.774 172.677 113.023C172.473 113.265 172.209 113.45 171.884 113.578ZM200.183 114.292C199.851 114.322 199.564 114.258 199.322 114.1C199.08 113.941 198.895 113.624 198.767 113.148C198.744 112.997 198.703 112.755 198.642 112.423C198.589 112.083 198.548 111.822 198.518 111.641C197.543 113.28 196.297 114.1 194.779 114.1C194.243 114.085 193.733 113.975 193.249 113.771C192.773 113.567 192.362 113.299 192.014 112.967C191.667 112.627 191.365 112.245 191.108 111.822C190.851 111.399 190.655 110.965 190.519 110.519C190.39 110.066 190.326 109.628 190.326 109.205C190.326 108.352 190.39 107.566 190.519 106.849C190.647 106.131 190.821 105.504 191.04 104.968C191.267 104.432 191.539 103.956 191.856 103.54C192.181 103.117 192.528 102.77 192.898 102.498C193.276 102.219 193.687 101.992 194.133 101.818C194.586 101.637 195.039 101.509 195.493 101.433C195.953 101.35 196.433 101.308 196.931 101.308C197.762 101.308 198.469 101.459 199.05 101.762C199.639 102.056 200.24 102.551 200.852 103.246C200.58 105.225 200.459 106.883 200.489 108.22C200.519 109.549 200.731 111.109 201.123 112.899C201.237 113.375 201.195 113.718 200.999 113.93C200.81 114.141 200.538 114.262 200.183 114.292ZM192.739 108.457C192.739 108.843 192.781 109.239 192.864 109.647C192.955 110.047 193.079 110.429 193.238 110.791C193.404 111.154 193.627 111.452 193.906 111.686C194.193 111.921 194.514 112.038 194.869 112.038C195.247 112.038 195.617 111.932 195.98 111.72C196.35 111.509 196.678 111.237 196.965 110.905C197.252 110.565 197.505 110.206 197.725 109.828C197.944 109.443 198.125 109.054 198.268 108.661C198.268 107.234 198.351 105.735 198.518 104.163C198.17 103.884 197.853 103.688 197.566 103.574C197.279 103.453 196.894 103.393 196.41 103.393C196.131 103.393 195.836 103.442 195.527 103.54C195.224 103.639 194.903 103.812 194.564 104.062C194.224 104.311 193.922 104.62 193.657 104.991C193.393 105.353 193.174 105.836 193 106.441C192.826 107.045 192.739 107.717 192.739 108.457ZM206.759 112.683C206.759 113.137 206.634 113.458 206.385 113.646C206.143 113.843 205.845 113.926 205.49 113.896C205.21 113.881 204.976 113.779 204.787 113.59C204.599 113.401 204.493 113.099 204.47 112.683C204.47 112.555 204.432 112.177 204.357 111.55C204.289 110.924 204.247 110.391 204.232 109.953C204.187 108.941 204.221 107.566 204.334 105.829C204.455 104.092 204.519 103.083 204.527 102.804C204.534 102.321 204.67 101.969 204.935 101.75C205.207 101.524 205.516 101.418 205.864 101.433C206.196 101.433 206.46 101.539 206.657 101.75C206.853 101.954 206.929 102.298 206.883 102.781C206.853 103.106 206.827 103.359 206.804 103.54C207.174 102.974 207.695 102.498 208.368 102.113C209.04 101.728 209.844 101.535 210.781 101.535C211.853 101.535 212.662 101.928 213.205 102.713C213.749 103.491 214.04 104.586 214.078 105.999C214.108 106.943 214.225 108.148 214.429 109.613C214.633 111.071 214.75 112.034 214.78 112.502C214.803 112.986 214.72 113.337 214.531 113.556C214.342 113.782 214.093 113.896 213.783 113.896C213.443 113.911 213.145 113.805 212.888 113.578C212.639 113.359 212.499 113.001 212.469 112.502C212.454 112.359 212.371 111.626 212.22 110.304C212.076 108.975 211.986 107.887 211.948 107.041C211.88 105.719 211.751 104.832 211.563 104.379C211.381 103.926 211.011 103.699 210.452 103.699C210.067 103.699 209.693 103.763 209.331 103.892C208.968 104.012 208.651 104.171 208.379 104.367C208.107 104.556 207.846 104.787 207.597 105.059C207.348 105.323 207.144 105.576 206.985 105.818C206.827 106.059 206.676 106.312 206.532 106.577C206.479 107.46 206.464 108.28 206.487 109.035C206.487 109.572 206.532 110.255 206.623 111.086C206.713 111.917 206.759 112.449 206.759 112.683ZM206.136 107.687V107.642V107.687ZM222.682 113.998C221.926 113.983 221.231 113.801 220.597 113.454C219.97 113.106 219.449 112.649 219.033 112.083C218.626 111.509 218.308 110.856 218.082 110.123C217.855 109.383 217.749 108.612 217.764 107.812C217.764 106.883 217.885 106.022 218.127 105.228C218.376 104.428 218.731 103.733 219.192 103.144C219.653 102.547 220.238 102.083 220.948 101.75C221.666 101.41 222.474 101.24 223.373 101.24C223.932 101.24 224.46 101.32 224.959 101.478C225.465 101.629 225.945 101.882 226.398 102.237C226.851 102.585 227.232 103.023 227.542 103.552C227.859 104.073 228.097 104.73 228.256 105.523C228.422 106.316 228.475 107.204 228.414 108.186C228.354 109.13 228.203 109.953 227.961 110.655C227.727 111.358 227.383 111.966 226.93 112.479C226.485 112.993 225.907 113.375 225.197 113.624C224.487 113.881 223.648 114.005 222.682 113.998ZM223.18 112.038C223.648 112.06 224.064 111.97 224.426 111.766C224.796 111.562 225.095 111.263 225.321 110.871C225.548 110.478 225.725 110.025 225.854 109.511C225.982 108.997 226.058 108.423 226.08 107.789C226.141 106.15 225.899 104.953 225.355 104.197C224.819 103.435 224.052 103.053 223.055 103.053C222.149 103.053 221.458 103.469 220.982 104.299C220.506 105.123 220.227 106.278 220.144 107.766C220.129 108.272 220.14 108.726 220.178 109.126C220.223 109.526 220.31 109.908 220.438 110.27C220.574 110.633 220.756 110.935 220.982 111.177C221.209 111.418 221.503 111.615 221.866 111.766C222.236 111.917 222.674 112.007 223.18 112.038ZM240.904 113.578C240.051 113.903 239.016 114.051 237.8 114.02C237.211 113.998 236.663 113.892 236.157 113.703C235.659 113.522 235.213 113.265 234.82 112.933C234.427 112.593 234.114 112.158 233.88 111.63C233.646 111.101 233.521 110.508 233.506 109.851C233.483 109.609 233.476 109.228 233.483 108.707C233.498 108.186 233.502 107.834 233.495 107.653C233.495 107.472 233.51 107.147 233.54 106.679C233.57 106.203 233.589 105.893 233.597 105.75C233.604 105.599 233.623 105.3 233.653 104.855C233.691 104.409 233.717 104.122 233.733 103.994H232.588C231.908 103.994 231.584 103.654 231.614 102.974C231.614 102.309 231.946 101.977 232.611 101.977C233.109 101.977 233.513 101.988 233.823 102.011C233.876 100.916 233.846 99.7487 233.733 98.51C233.702 98.2683 233.763 98.0341 233.914 97.8075C234.072 97.5809 234.284 97.4676 234.548 97.4676C234.828 97.4676 235.126 97.5658 235.443 97.7622C235.768 97.9586 235.949 98.1663 235.987 98.3853C236.048 98.9518 236.048 100.175 235.987 102.056C236.486 102.071 237.094 102.09 237.811 102.113C238.536 102.135 239.125 102.154 239.579 102.169C240.032 102.177 240.349 102.181 240.53 102.181C241.195 102.181 241.527 102.521 241.527 103.2C241.512 103.465 241.433 103.676 241.289 103.835C241.146 103.986 240.893 104.062 240.53 104.062C240.168 104.062 238.627 104.046 235.908 104.016C235.9 104.296 235.881 104.764 235.851 105.421C235.821 106.078 235.802 106.524 235.795 106.758C235.787 106.992 235.772 107.392 235.749 107.959C235.727 108.525 235.719 108.858 235.727 108.956C235.734 109.054 235.738 109.296 235.738 109.681C235.776 110.368 236.002 110.927 236.418 111.358C236.841 111.781 237.418 112.007 238.151 112.038C239.118 112.068 240.036 111.894 240.904 111.516C241.138 111.418 241.35 111.433 241.539 111.562C241.728 111.69 241.856 111.905 241.924 112.208C241.977 112.502 241.901 112.774 241.697 113.023C241.493 113.265 241.229 113.45 240.904 113.578ZM255.977 112.434C255.977 112.91 255.853 113.276 255.603 113.533C255.362 113.79 255.078 113.911 254.754 113.896C254.459 113.881 254.187 113.756 253.938 113.522C253.689 113.288 253.564 112.989 253.564 112.627C253.564 112.189 253.579 111.346 253.609 110.1C253.64 108.846 253.651 107.827 253.643 107.041C253.628 105.984 253.5 105.176 253.258 104.617C253.016 104.05 252.665 103.767 252.204 103.767C251.736 103.774 251.306 103.854 250.913 104.005C250.528 104.156 250.203 104.349 249.939 104.583C249.682 104.809 249.451 105.074 249.247 105.376C249.043 105.67 248.885 105.961 248.772 106.248C248.666 106.528 248.575 106.807 248.5 107.087C248.432 107.358 248.386 107.577 248.364 107.744C248.341 107.902 248.33 108.027 248.33 108.118V108.084C248.33 108.174 248.326 108.325 248.318 108.537C248.311 108.741 248.307 108.896 248.307 109.001C248.299 109.296 248.296 109.666 248.296 110.112C248.296 110.557 248.292 110.897 248.284 111.131C248.284 111.365 248.273 111.637 248.25 111.947C248.235 112.257 248.213 112.544 248.182 112.808C248.145 113.14 247.99 113.405 247.718 113.601C247.446 113.797 247.144 113.888 246.812 113.873C246.502 113.873 246.245 113.767 246.041 113.556C245.845 113.344 245.762 113.054 245.792 112.683C245.837 112.049 245.894 110.931 245.962 109.33C246.037 107.729 246.064 106.63 246.041 106.033C245.928 103.435 245.913 100.364 245.996 96.8218C246.003 96.3989 246.117 96.0816 246.336 95.8701C246.555 95.6587 246.823 95.5529 247.14 95.5529C247.48 95.5378 247.763 95.6284 247.99 95.8248C248.216 96.0212 248.33 96.3271 248.33 96.7425C248.33 98.4646 248.345 100.863 248.375 103.937C248.541 103.635 248.749 103.352 248.998 103.087C249.247 102.823 249.553 102.574 249.916 102.339C250.278 102.105 250.72 101.92 251.241 101.784C251.77 101.648 252.344 101.58 252.964 101.58C253.477 101.58 253.919 101.697 254.289 101.932C254.667 102.166 254.958 102.494 255.161 102.917C255.373 103.333 255.524 103.797 255.615 104.311C255.713 104.824 255.758 105.387 255.751 105.999C255.743 106.928 255.777 108.102 255.853 109.522C255.936 110.942 255.977 111.913 255.977 112.434ZM269.657 111.981C269.415 112.313 269.162 112.593 268.898 112.819C268.633 113.046 268.297 113.257 267.889 113.454C267.489 113.658 266.99 113.805 266.394 113.896C265.805 113.994 265.121 114.035 264.343 114.02C262.795 113.998 261.594 113.442 260.74 112.355C259.887 111.267 259.475 109.772 259.505 107.868C259.52 106.834 259.683 105.901 259.992 105.07C260.302 104.231 260.721 103.54 261.25 102.997C261.779 102.445 262.402 102.022 263.119 101.728C263.837 101.433 264.615 101.286 265.453 101.286C265.937 101.286 266.462 101.418 267.028 101.682C267.602 101.947 268.139 102.324 268.637 102.815C269.136 103.306 269.483 103.839 269.679 104.413C269.762 104.798 269.657 105.217 269.362 105.67C269.075 106.124 268.773 106.467 268.456 106.701C268.169 106.913 267.806 107.132 267.368 107.358C266.93 107.585 266.432 107.808 265.873 108.027C265.321 108.246 264.845 108.431 264.445 108.582C264.045 108.733 263.546 108.911 262.95 109.115C262.353 109.318 261.979 109.447 261.828 109.5C261.888 109.877 261.975 110.214 262.088 110.508C262.209 110.803 262.372 111.075 262.576 111.324C262.78 111.566 263.04 111.758 263.357 111.902C263.675 112.038 264.045 112.113 264.468 112.128C264.883 112.151 265.295 112.106 265.703 111.992C266.118 111.871 266.462 111.724 266.734 111.55C267.013 111.369 267.236 111.214 267.402 111.086C267.568 110.95 267.682 110.844 267.742 110.769C268.339 109.968 268.935 109.768 269.532 110.168C270.174 110.614 270.216 111.218 269.657 111.981ZM264.966 103.098C264.702 103.098 264.434 103.144 264.162 103.234C263.89 103.325 263.614 103.48 263.335 103.699C263.063 103.91 262.817 104.171 262.598 104.481C262.379 104.783 262.19 105.168 262.032 105.636C261.881 106.105 261.79 106.622 261.76 107.189C264.721 106.456 266.598 105.723 267.391 104.991C267.036 104.288 266.662 103.797 266.269 103.518C265.884 103.238 265.45 103.098 264.966 103.098ZM276.232 112.853C276.255 113.601 275.866 113.956 275.065 113.918C274.756 113.903 274.507 113.82 274.318 113.669C274.136 113.518 274.031 113.246 274 112.853C273.993 112.8 273.944 112.419 273.853 111.709C273.77 110.999 273.721 110.414 273.706 109.953C273.668 108.963 273.71 107.63 273.831 105.954C273.951 104.277 274.016 103.219 274.023 102.781C274.046 102.305 274.182 101.962 274.431 101.75C274.68 101.539 274.982 101.433 275.337 101.433C275.662 101.433 275.923 101.535 276.119 101.739C276.316 101.943 276.402 102.279 276.38 102.747L276.232 104.163C276.406 103.869 276.674 103.574 277.037 103.28C277.407 102.985 277.853 102.71 278.374 102.453C278.902 102.188 279.533 101.981 280.266 101.83C280.998 101.678 281.765 101.614 282.566 101.637C282.732 101.675 282.879 101.841 283.008 102.135C283.144 102.43 283.238 102.77 283.291 103.155C283.351 103.533 283.385 103.918 283.393 104.311C283.408 104.704 283.378 105.021 283.302 105.262C283.249 105.542 283.14 105.757 282.974 105.908C282.807 106.052 282.596 106.158 282.339 106.225C282.067 106.286 281.814 106.225 281.58 106.044C281.346 105.863 281.21 105.633 281.172 105.353C281.142 105.194 281.123 104.987 281.116 104.73C281.116 104.466 281.097 104.25 281.059 104.084C281.021 103.91 280.942 103.756 280.821 103.62C280.315 103.62 279.816 103.718 279.325 103.914C278.834 104.111 278.408 104.352 278.045 104.639C277.683 104.919 277.35 105.228 277.048 105.568C276.746 105.908 276.508 106.218 276.334 106.497C276.168 106.769 276.051 107 275.983 107.189C275.953 107.997 275.945 108.612 275.961 109.035C275.961 109.609 276.002 110.365 276.085 111.301C276.176 112.238 276.225 112.755 276.232 112.853ZM303.523 112.627C303.501 113.103 303.369 113.439 303.127 113.635C302.885 113.839 302.575 113.926 302.198 113.896C301.896 113.881 301.631 113.775 301.405 113.578C301.178 113.382 301.08 113.084 301.11 112.683C301.171 111.981 301.212 110.856 301.235 109.307C301.257 107.751 301.269 106.293 301.269 104.934C301.269 103.567 301.261 101.969 301.246 100.141C301.239 98.306 301.235 97.1655 301.235 96.7199C301.235 96.3271 301.356 96.0363 301.597 95.8475C301.839 95.6511 302.134 95.5529 302.481 95.5529C302.798 95.5529 303.063 95.6473 303.274 95.8362C303.486 96.0174 303.591 96.3045 303.591 96.6972C303.591 98.6988 303.542 101.848 303.444 106.146C304.313 105.361 305.4 104.424 306.707 103.336C308.014 102.241 308.739 101.626 308.882 101.49C309.094 101.278 309.302 101.138 309.505 101.07C309.709 101.002 309.883 100.991 310.027 101.036C310.178 101.082 310.317 101.165 310.446 101.286C310.846 101.716 310.778 102.253 310.242 102.895C309.94 103.25 308.826 104.269 306.9 105.954C307.209 106.512 307.764 107.317 308.565 108.367C309.366 109.409 310.076 110.331 310.695 111.131C311.314 111.924 311.628 112.381 311.635 112.502C311.681 113.031 311.507 113.42 311.114 113.669C310.948 113.782 310.782 113.85 310.616 113.873C310.45 113.896 310.272 113.858 310.083 113.76C309.902 113.669 309.732 113.507 309.573 113.273C309.49 113.152 309.237 112.834 308.814 112.321C308.391 111.8 307.968 111.279 307.545 110.757C307.13 110.236 306.703 109.651 306.265 109.001C305.827 108.344 305.517 107.793 305.336 107.347L303.444 109.001C303.429 109.024 303.414 109.035 303.399 109.035C303.384 109.609 303.403 110.289 303.455 111.075C303.516 111.853 303.538 112.37 303.523 112.627ZM324.873 111.981C324.631 112.313 324.378 112.593 324.114 112.819C323.85 113.046 323.513 113.257 323.106 113.454C322.705 113.658 322.207 113.805 321.61 113.896C321.021 113.994 320.337 114.035 319.559 114.02C318.011 113.998 316.81 113.442 315.957 112.355C315.103 111.267 314.691 109.772 314.722 107.868C314.737 106.834 314.899 105.901 315.209 105.07C315.519 104.231 315.938 103.54 316.466 102.997C316.995 102.445 317.618 102.022 318.336 101.728C319.053 101.433 319.831 101.286 320.67 101.286C321.153 101.286 321.678 101.418 322.245 101.682C322.819 101.947 323.355 102.324 323.853 102.815C324.352 103.306 324.699 103.839 324.896 104.413C324.979 104.798 324.873 105.217 324.578 105.67C324.291 106.124 323.989 106.467 323.672 106.701C323.385 106.913 323.023 107.132 322.584 107.358C322.146 107.585 321.648 107.808 321.089 108.027C320.538 108.246 320.062 108.431 319.661 108.582C319.261 108.733 318.763 108.911 318.166 109.115C317.569 109.318 317.195 109.447 317.044 109.5C317.105 109.877 317.192 110.214 317.305 110.508C317.426 110.803 317.588 111.075 317.792 111.324C317.996 111.566 318.257 111.758 318.574 111.902C318.891 112.038 319.261 112.113 319.684 112.128C320.099 112.151 320.511 112.106 320.919 111.992C321.334 111.871 321.678 111.724 321.95 111.55C322.229 111.369 322.452 111.214 322.618 111.086C322.785 110.95 322.898 110.844 322.958 110.769C323.555 109.968 324.152 109.768 324.748 110.168C325.39 110.614 325.432 111.218 324.873 111.981ZM320.183 103.098C319.918 103.098 319.65 103.144 319.378 103.234C319.106 103.325 318.831 103.48 318.551 103.699C318.279 103.91 318.034 104.171 317.815 104.481C317.596 104.783 317.407 105.168 317.248 105.636C317.097 106.105 317.006 106.622 316.976 107.189C319.937 106.456 321.814 105.723 322.607 104.991C322.252 104.288 321.878 103.797 321.485 103.518C321.1 103.238 320.666 103.098 320.183 103.098ZM331.369 120.104C331.226 120.399 331.003 120.595 330.701 120.693C330.399 120.792 330.093 120.735 329.783 120.524C329.632 120.41 329.511 120.278 329.421 120.127C329.338 119.976 329.289 119.798 329.273 119.595C329.258 119.391 329.315 119.179 329.443 118.96L332.446 113.08C330.542 109.5 329.085 106.354 328.073 103.642C327.937 103.287 327.884 102.981 327.914 102.725C327.952 102.46 328.023 102.253 328.129 102.101C328.242 101.95 328.39 101.837 328.571 101.762C328.707 101.686 328.854 101.645 329.013 101.637C329.172 101.622 329.334 101.645 329.5 101.705C329.666 101.765 329.825 101.886 329.976 102.067C330.127 102.249 330.244 102.487 330.327 102.781C330.584 103.612 330.928 104.552 331.358 105.602C331.789 106.652 332.151 107.498 332.446 108.14C332.748 108.775 333.152 109.617 333.658 110.667C335.274 107.404 336.49 104.722 337.306 102.623C337.404 102.358 337.525 102.139 337.669 101.966C337.812 101.792 337.96 101.675 338.111 101.614C338.269 101.554 338.42 101.524 338.564 101.524C338.715 101.524 338.858 101.554 338.994 101.614C339.115 101.675 339.225 101.758 339.323 101.864C339.429 101.962 339.516 102.09 339.584 102.249C339.659 102.4 339.693 102.589 339.685 102.815C339.678 103.034 339.621 103.268 339.516 103.518C339.145 104.401 338.594 105.602 337.861 107.121C337.129 108.639 336.423 110.074 335.743 111.426C335.063 112.778 333.979 114.934 332.491 117.895C332 118.854 331.626 119.591 331.369 120.104ZM353.195 112.502C353.21 112.812 353.127 113.069 352.946 113.273C352.764 113.476 352.443 113.578 351.983 113.578C351.786 113.578 350.412 113.563 347.859 113.533C345.313 113.51 343.659 113.499 342.896 113.499C342.549 113.499 342.296 113.405 342.137 113.216C341.979 113.027 341.899 112.789 341.899 112.502C341.884 112.192 341.956 111.936 342.115 111.732C342.281 111.52 342.549 111.414 342.919 111.414C343.614 111.414 344.807 111.43 346.499 111.46C346.499 110.848 346.488 110.346 346.465 109.953C346.435 108.578 346.435 106.694 346.465 104.299C346.495 101.905 346.537 99.7411 346.59 97.8075C346.099 97.8453 345.189 97.8642 343.859 97.8642C343.527 97.8642 343.27 97.7547 343.089 97.5356C342.915 97.309 342.836 97.0522 342.851 96.7652C342.851 96.5084 342.934 96.2931 343.1 96.1194C343.266 95.9381 343.512 95.8475 343.837 95.8475C344.924 95.8475 345.8 95.8324 346.465 95.8022C347.13 95.772 347.711 95.7644 348.21 95.7795C348.414 95.7795 348.554 95.8928 348.629 96.1194C348.826 96.1949 348.924 96.3196 348.924 96.4933C348.841 96.9842 348.773 98.2909 348.72 100.413C348.674 102.528 348.652 104.111 348.652 105.16C348.652 106.701 348.659 107.993 348.674 109.035C348.674 109.609 348.693 110.444 348.731 111.539C349.177 111.547 349.649 111.558 350.147 111.573C350.653 111.581 351.065 111.588 351.382 111.596C351.699 111.603 351.915 111.607 352.028 111.607C352.459 111.607 352.757 111.69 352.923 111.856C353.089 112.023 353.18 112.238 353.195 112.502ZM360.722 113.998C359.967 113.983 359.272 113.801 358.638 113.454C358.011 113.106 357.49 112.649 357.074 112.083C356.666 111.509 356.349 110.856 356.123 110.123C355.896 109.383 355.79 108.612 355.805 107.812C355.805 106.883 355.926 106.022 356.168 105.228C356.417 104.428 356.772 103.733 357.233 103.144C357.694 102.547 358.279 102.083 358.989 101.75C359.707 101.41 360.515 101.24 361.414 101.24C361.972 101.24 362.501 101.32 363 101.478C363.506 101.629 363.985 101.882 364.439 102.237C364.892 102.585 365.273 103.023 365.583 103.552C365.9 104.073 366.138 104.73 366.297 105.523C366.463 106.316 366.516 107.204 366.455 108.186C366.395 109.13 366.244 109.953 366.002 110.655C365.768 111.358 365.424 111.966 364.971 112.479C364.525 112.993 363.948 113.375 363.238 113.624C362.528 113.881 361.689 114.005 360.722 113.998ZM361.221 112.038C361.689 112.06 362.105 111.97 362.467 111.766C362.837 111.562 363.136 111.263 363.362 110.871C363.589 110.478 363.766 110.025 363.895 109.511C364.023 108.997 364.099 108.423 364.121 107.789C364.182 106.15 363.94 104.953 363.396 104.197C362.86 103.435 362.093 103.053 361.096 103.053C360.19 103.053 359.499 103.469 359.023 104.299C358.547 105.123 358.268 106.278 358.185 107.766C358.169 108.272 358.181 108.726 358.219 109.126C358.264 109.526 358.351 109.908 358.479 110.27C358.615 110.633 358.796 110.935 359.023 111.177C359.25 111.418 359.544 111.615 359.907 111.766C360.277 111.917 360.715 112.007 361.221 112.038ZM379.965 114.338C379.889 115.108 379.716 115.814 379.444 116.456C379.172 117.098 378.828 117.642 378.413 118.088C378.005 118.541 377.536 118.922 377.008 119.232C376.487 119.549 375.935 119.78 375.354 119.923C374.772 120.074 374.172 120.15 373.552 120.15C373.069 120.15 372.585 120.082 372.102 119.946C371.619 119.81 371.226 119.662 370.924 119.504C370.901 119.489 370.844 119.459 370.754 119.413C370.671 119.368 370.618 119.338 370.595 119.323C370.572 119.315 370.527 119.289 370.459 119.243C370.399 119.206 370.361 119.175 370.346 119.153C370.331 119.138 370.301 119.107 370.255 119.062C370.21 119.024 370.183 118.99 370.176 118.96C370.168 118.93 370.153 118.888 370.131 118.835C370.108 118.783 370.093 118.726 370.085 118.665C370.085 118.613 370.085 118.552 370.085 118.484C370.085 118.182 370.187 117.929 370.391 117.725C370.595 117.521 370.822 117.446 371.071 117.499C371.184 117.514 371.35 117.582 371.569 117.702C371.796 117.831 372.045 117.948 372.317 118.054C372.589 118.159 372.853 118.212 373.11 118.212C373.903 118.212 374.647 118.046 375.342 117.714C376.045 117.381 376.626 116.909 377.087 116.298C377.548 115.686 377.835 114.991 377.948 114.213C378.001 113.888 378.042 113.318 378.073 112.502C377.302 113.567 376.064 114.1 374.357 114.1C372.838 114.069 371.732 113.56 371.037 112.57C370.35 111.581 370.006 110.112 370.006 108.163C370.021 107.234 370.149 106.395 370.391 105.648C370.64 104.892 370.965 104.265 371.366 103.767C371.773 103.261 372.257 102.842 372.816 102.509C373.375 102.169 373.96 101.928 374.572 101.784C375.191 101.633 375.845 101.558 376.532 101.558C377.355 101.558 377.944 101.592 378.299 101.66C378.654 101.728 379.009 101.86 379.364 102.056C379.508 102.132 379.61 102.249 379.67 102.407C379.731 102.558 379.753 102.71 379.738 102.861C379.731 103.012 379.697 103.14 379.636 103.246C379.629 103.261 379.61 103.287 379.58 103.325C379.557 103.355 379.542 103.378 379.534 103.393C379.919 103.491 380.112 103.79 380.112 104.288C380.112 104.326 380.12 105.194 380.135 106.894C380.157 108.586 380.154 110.021 380.123 111.199C380.101 112.37 380.048 113.416 379.965 114.338ZM372.215 107.415C372.2 107.906 372.196 108.378 372.204 108.831C372.219 109.284 372.279 109.711 372.385 110.112C372.499 110.512 372.642 110.859 372.816 111.154C372.997 111.448 373.242 111.679 373.552 111.845C373.862 112.004 374.221 112.075 374.628 112.06C375.082 112.045 375.497 111.97 375.875 111.834C376.252 111.698 376.566 111.528 376.815 111.324C377.072 111.112 377.295 110.871 377.484 110.599C377.672 110.319 377.816 110.047 377.914 109.783C378.012 109.511 378.084 109.235 378.129 108.956C378.137 108.503 378.144 107.766 378.152 106.747C378.16 105.719 378.167 104.941 378.175 104.413C378.175 104.224 378.224 104.043 378.322 103.869L378.175 103.846C377.359 103.605 376.607 103.495 375.92 103.518C375.595 103.533 375.274 103.589 374.957 103.688C374.647 103.778 374.33 103.926 374.005 104.129C373.688 104.333 373.405 104.579 373.156 104.866C372.906 105.153 372.695 105.515 372.521 105.954C372.355 106.392 372.253 106.879 372.215 107.415ZM393.769 114.338C393.693 115.108 393.52 115.814 393.248 116.456C392.976 117.098 392.632 117.642 392.217 118.088C391.809 118.541 391.341 118.922 390.812 119.232C390.291 119.549 389.739 119.78 389.158 119.923C388.576 120.074 387.976 120.15 387.356 120.15C386.873 120.15 386.389 120.082 385.906 119.946C385.423 119.81 385.03 119.662 384.728 119.504C384.705 119.489 384.648 119.459 384.558 119.413C384.475 119.368 384.422 119.338 384.399 119.323C384.377 119.315 384.331 119.289 384.263 119.243C384.203 119.206 384.165 119.175 384.15 119.153C384.135 119.138 384.105 119.107 384.059 119.062C384.014 119.024 383.988 118.99 383.98 118.96C383.972 118.93 383.957 118.888 383.935 118.835C383.912 118.783 383.897 118.726 383.889 118.665C383.889 118.613 383.889 118.552 383.889 118.484C383.889 118.182 383.991 117.929 384.195 117.725C384.399 117.521 384.626 117.446 384.875 117.499C384.988 117.514 385.155 117.582 385.374 117.702C385.6 117.831 385.849 117.948 386.121 118.054C386.393 118.159 386.658 118.212 386.914 118.212C387.707 118.212 388.451 118.046 389.146 117.714C389.849 117.381 390.43 116.909 390.891 116.298C391.352 115.686 391.639 114.991 391.752 114.213C391.805 113.888 391.847 113.318 391.877 112.502C391.106 113.567 389.868 114.1 388.161 114.1C386.642 114.069 385.536 113.56 384.841 112.57C384.154 111.581 383.81 110.112 383.81 108.163C383.825 107.234 383.954 106.395 384.195 105.648C384.445 104.892 384.769 104.265 385.17 103.767C385.577 103.261 386.061 102.842 386.62 102.509C387.179 102.169 387.764 101.928 388.376 101.784C388.995 101.633 389.649 101.558 390.336 101.558C391.159 101.558 391.748 101.592 392.103 101.66C392.458 101.728 392.813 101.86 393.168 102.056C393.312 102.132 393.414 102.249 393.474 102.407C393.535 102.558 393.557 102.71 393.542 102.861C393.535 103.012 393.501 103.14 393.44 103.246C393.433 103.261 393.414 103.287 393.384 103.325C393.361 103.355 393.346 103.378 393.338 103.393C393.724 103.491 393.916 103.79 393.916 104.288C393.916 104.326 393.924 105.194 393.939 106.894C393.961 108.586 393.958 110.021 393.927 111.199C393.905 112.37 393.852 113.416 393.769 114.338ZM386.019 107.415C386.004 107.906 386 108.378 386.008 108.831C386.023 109.284 386.084 109.711 386.189 110.112C386.303 110.512 386.446 110.859 386.62 111.154C386.801 111.448 387.047 111.679 387.356 111.845C387.666 112.004 388.025 112.075 388.433 112.06C388.886 112.045 389.301 111.97 389.679 111.834C390.056 111.698 390.37 111.528 390.619 111.324C390.876 111.112 391.099 110.871 391.288 110.599C391.476 110.319 391.62 110.047 391.718 109.783C391.816 109.511 391.888 109.235 391.933 108.956C391.941 108.503 391.949 107.766 391.956 106.747C391.964 105.719 391.971 104.941 391.979 104.413C391.979 104.224 392.028 104.043 392.126 103.869L391.979 103.846C391.163 103.605 390.411 103.495 389.724 103.518C389.399 103.533 389.078 103.589 388.761 103.688C388.451 103.778 388.134 103.926 387.809 104.129C387.492 104.333 387.209 104.579 386.96 104.866C386.71 105.153 386.499 105.515 386.325 105.954C386.159 106.392 386.057 106.879 386.019 107.415ZM407.698 111.981C407.456 112.313 407.203 112.593 406.939 112.819C406.674 113.046 406.338 113.257 405.93 113.454C405.53 113.658 405.031 113.805 404.435 113.896C403.845 113.994 403.162 114.035 402.384 114.02C400.836 113.998 399.635 113.442 398.781 112.355C397.928 111.267 397.516 109.772 397.546 107.868C397.561 106.834 397.724 105.901 398.033 105.07C398.343 104.231 398.762 103.54 399.291 102.997C399.82 102.445 400.443 102.022 401.16 101.728C401.878 101.433 402.656 101.286 403.494 101.286C403.978 101.286 404.503 101.418 405.069 101.682C405.643 101.947 406.179 102.324 406.678 102.815C407.176 103.306 407.524 103.839 407.72 104.413C407.803 104.798 407.698 105.217 407.403 105.67C407.116 106.124 406.814 106.467 406.497 106.701C406.21 106.913 405.847 107.132 405.409 107.358C404.971 107.585 404.472 107.808 403.913 108.027C403.362 108.246 402.886 108.431 402.486 108.582C402.086 108.733 401.587 108.911 400.99 109.115C400.394 109.318 400.02 109.447 399.869 109.5C399.929 109.877 400.016 110.214 400.129 110.508C400.25 110.803 400.413 111.075 400.617 111.324C400.82 111.566 401.081 111.758 401.398 111.902C401.716 112.038 402.086 112.113 402.509 112.128C402.924 112.151 403.336 112.106 403.744 111.992C404.159 111.871 404.503 111.724 404.775 111.55C405.054 111.369 405.277 111.214 405.443 111.086C405.609 110.95 405.722 110.844 405.783 110.769C406.38 109.968 406.976 109.768 407.573 110.168C408.215 110.614 408.257 111.218 407.698 111.981ZM403.007 103.098C402.743 103.098 402.475 103.144 402.203 103.234C401.931 103.325 401.655 103.48 401.376 103.699C401.104 103.91 400.858 104.171 400.639 104.481C400.42 104.783 400.231 105.168 400.073 105.636C399.922 106.105 399.831 106.622 399.801 107.189C402.762 106.456 404.639 105.723 405.432 104.991C405.077 104.288 404.703 103.797 404.31 103.518C403.925 103.238 403.491 103.098 403.007 103.098ZM414.273 112.853C414.296 113.601 413.907 113.956 413.106 113.918C412.797 113.903 412.547 113.82 412.359 113.669C412.177 113.518 412.072 113.246 412.041 112.853C412.034 112.8 411.985 112.419 411.894 111.709C411.811 110.999 411.762 110.414 411.747 109.953C411.709 108.963 411.751 107.63 411.871 105.954C411.992 104.277 412.056 103.219 412.064 102.781C412.087 102.305 412.223 101.962 412.472 101.75C412.721 101.539 413.023 101.433 413.378 101.433C413.703 101.433 413.964 101.535 414.16 101.739C414.356 101.943 414.443 102.279 414.421 102.747L414.273 104.163C414.447 103.869 414.715 103.574 415.078 103.28C415.448 102.985 415.893 102.71 416.415 102.453C416.943 102.188 417.574 101.981 418.307 101.83C419.039 101.678 419.806 101.614 420.607 101.637C420.773 101.675 420.92 101.841 421.048 102.135C421.184 102.43 421.279 102.77 421.332 103.155C421.392 103.533 421.426 103.918 421.434 104.311C421.449 104.704 421.419 105.021 421.343 105.262C421.29 105.542 421.181 105.757 421.014 105.908C420.848 106.052 420.637 106.158 420.38 106.225C420.108 106.286 419.855 106.225 419.621 106.044C419.387 105.863 419.251 105.633 419.213 105.353C419.183 105.194 419.164 104.987 419.156 104.73C419.156 104.466 419.138 104.25 419.1 104.084C419.062 103.91 418.983 103.756 418.862 103.62C418.356 103.62 417.857 103.718 417.366 103.914C416.875 104.111 416.449 104.352 416.086 104.639C415.724 104.919 415.391 105.228 415.089 105.568C414.787 105.908 414.549 106.218 414.375 106.497C414.209 106.769 414.092 107 414.024 107.189C413.994 107.997 413.986 108.612 414.001 109.035C414.001 109.609 414.043 110.365 414.126 111.301C414.217 112.238 414.266 112.755 414.273 112.853Z" fill="#7D769F"/>
<path d="M108.173 4.98901H11.1902C7.08707 4.98901 3.72998 8.3461 3.72998 12.4492V109.432C3.72998 113.535 7.08707 116.892 11.1902 116.892H108.173C112.276 116.892 115.633 113.535 115.633 109.432V12.4492C115.633 8.3461 112.276 4.98901 108.173 4.98901Z" fill="#544B86"/>
<path d="M113.488 7.13382C112.089 5.82829 110.224 4.98901 108.173 4.98901H11.1902C7.08707 4.98901 3.72998 8.3461 3.72998 12.4492V109.432C3.72998 111.483 4.56925 113.348 5.87479 114.747L21.5412 99.0807H92.413C95.4904 99.0807 97.9149 96.5629 97.9149 93.5788V22.707L113.488 7.13382Z" fill="#BBB7CD"/>
<path d="M113.405 7.05032C112.006 5.74479 110.141 4.90552 108.089 4.90552L11.1067 4.90552C7.00357 4.90552 3.64648 8.2626 3.64648 12.3657L3.64648 109.348C3.64648 111.4 4.48576 113.265 5.79129 114.664L21.4577 98.9972L21.4577 22.6235L77.3039 22.6235L97.8314 22.6235L113.405 7.05032Z" fill="#B8B5C2"/>
<g opacity="0.5" filter="url(#filter0_b_121_2)">
<path d="M37.0985 22.5499C24.2962 23.6416 30.9843 44.4178 29.6583 52.9181C32.8289 52.9181 32.8289 45.5512 35.4399 41.4481C37.7057 37.7978 61.083 21.7678 37.0985 22.5499Z" fill="#E8E4F8"/>
<path d="M37.0985 22.5499C17.0426 23.887 17.4729 51.8765 29.6583 52.9181C30.9843 44.4178 24.2962 23.6416 37.0985 22.5499Z" fill="#E8E4F8"/>
</g>
<g filter="url(#filter1_i_121_2)">
<g clip-path="url(#clip0_121_2)">
<path d="M36.0108 74.581C36.3132 74.3027 39.2968 74.4952 39.2968 74.4952L39.3308 71.3385L40.7902 69.6705L44.2493 69.6139L44.2526 69.6091C44.2672 69.656 44.2543 66.137 44.2543 66.137L45.8689 64.9672C45.8689 64.9672 49.0093 64.875 49.0352 64.8507L49.2875 61.6246L52.1949 58.1832C51.1903 56.0152 50.611 53.6061 50.611 51.0577C50.611 41.6818 58.2187 34.0806 67.6026 34.0806C76.9917 34.0787 84.5994 41.6799 84.5994 51.0559C84.5994 60.4335 76.9917 68.0362 67.6061 68.0362C65.0028 68.0362 62.5451 67.4327 60.3399 66.3859L41.0135 85.8288C41.0135 85.8288 32.8316 85.8513 32.8316 85.8482L32.8186 77.5902C32.8186 77.5902 34.1032 76.338 36.0108 74.581ZM70.8483 51.8973C73.0729 51.8973 74.8754 50.0836 74.8754 47.846C74.8754 45.6085 73.0731 43.793 70.8483 43.793C68.6236 43.793 66.8196 45.6083 66.8196 47.846C66.8196 50.0837 68.6237 51.8973 70.8483 51.8973Z" fill="#EFC75E"/>
<path d="M70.8452 42.1699C73.9727 42.1699 76.5081 44.7053 76.5081 47.8327C76.5081 50.9602 73.9727 53.4956 70.8452 53.4956C67.7162 53.4956 65.1824 50.9602 65.1824 47.8327C65.1824 44.7053 67.7162 42.1699 70.8452 42.1699ZM70.8452 50.2598C72.185 50.2598 73.2721 49.1725 73.2721 47.8329C73.2721 46.4917 72.1848 45.4061 70.8452 45.4061C69.5055 45.4061 68.4184 46.4917 68.4184 47.8329C68.4184 49.1725 69.5055 50.2598 70.8452 50.2598Z" fill="#CA9F30"/>
<path d="M56.4518 63.8472C57.997 65.1934 59.7849 66.2563 61.7441 66.9796L42.5311 85.8561H34.4414L56.4518 63.8472Z" fill="#CA9F30"/>
</g>
</g>
<defs>
<filter id="filter0_b_121_2" x="20.4185" y="21.7971" width="28.1384" height="31.8461" filterUnits="userSpaceOnUse" color-interpolation-filters="sRGB">
<feFlood flood-opacity="0" result="BackgroundImageFix"/>
<feGaussianBlur in="BackgroundImageFix" stdDeviation="0.36255"/>
<feComposite in2="SourceAlpha" operator="in" result="effect1_backgroundBlur_121_2"/>
<feBlend mode="normal" in="SourceGraphic" in2="effect1_backgroundBlur_121_2" result="shape"/>
</filter>
<filter id="filter1_i_121_2" x="32.8186" y="34.0778" width="51.7808" height="52.5059" filterUnits="userSpaceOnUse" color-interpolation-filters="sRGB">
<feFlood flood-opacity="0" result="BackgroundImageFix"/>
<feBlend mode="normal" in="SourceGraphic" in2="BackgroundImageFix" result="shape"/>
<feColorMatrix in="SourceAlpha" type="matrix" values="0 0 0 0 0 0 0 0 0 0 0 0 0 0 0 0 0 0 127 0" result="hardAlpha"/>
<feOffset dy="0.7251"/>
<feGaussianBlur stdDeviation="0.36255"/>
<feComposite in2="hardAlpha" operator="arithmetic" k2="-1" k3="1"/>
<feColorMatrix type="matrix" values="0 0 0 0 0 0 0 0 0 0 0 0 0 0 0 0 0 0 0.25 0"/>
<feBlend mode="normal" in2="shape" result="effect1_innerShadow_121_2"/>
</filter>
<clipPath id="clip0_121_2">
<rect width="51.7807" height="51.7807" transform="matrix(-1 0 0 1 84.5994 34.0778)" fill="white"/>
</clipPath>
</defs>
</svg>
